<?xml version="1.0" encoding="UTF-8" standalone="no"?>
<svg width="203px" height="175px" viewBox="0 0 203 175" version="1.1" xmlns="http://www.w3.org/2000/svg" xmlns:xlink="http://www.w3.org/1999/xlink" xmlns:sketch="http://www.bohemiancoding.com/sketch/ns">
    <!-- Generator: Sketch 3.3 (11970) - http://www.bohemiancoding.com/sketch -->
    <title>Group</title>
    <desc>Created with Sketch.</desc>
    <defs></defs>
    <g id="Page-1" stroke="none" stroke-width="1" fill="none" fill-rule="evenodd" sketch:type="MSPage">
        <g id="clock-(2)" sketch:type="MSLayerGroup" transform="translate(1.000000, 1.000000)" stroke-width="2" stroke="#414042">
            <g id="Group" sketch:type="MSShapeGroup">
                <g id="Shape">
                    <path d="M41,103.6 C41,103.6 43.1,126 44.6,132.2 C47.4,143 49.9,149.5 67.6,157 C87.4,163.8 99.1,160.3 114.6,167.3 C123.1,172.1 129.5,174.5 140.4,171.2 C164.4,166.1 172.8,165.9 187,145.9 C194.5,136.3 197.9,137.1 199.3,130.6 C201.9,111.1 199.5,93.9 194.3,81.7 C189,72.4 172,67.4 156.6,64.7 C156.4,64.7 156.1,64.8 156,65 L155.6,65.7 C155.4,66 155.6,66.4 156,66.5 C160.4,67.2 182.5,71.1 186.3,80.3 C188.6,85.5 173.7,86.2 170,84 C166.3,81.8 157.8,79 145.3,80.9 C139.9,81.9 125.1,82.8 113.8,90.6 C113.8,90.6 102.3,100.7 88.1,104.4 C70.3,108.6 57.1,100.3 50.3,96.5"></path>
                    <path d="M50.4,96.5 C52.8,95.5 55.6,94.5 58.9,93.4 C59,93.4 59.1,93.3 59.2,93.3 C75.2,85.3 101.2,87.4 112.6,90.6 C113.2,90.8 113.9,90.7 114.5,90.3 C126.7,83.1 134.5,82.2 144.7,81.1 C145.1,81.1 145.6,80.9 145.9,80.6 C151,76.7 152,75 152.2,72.4 C152.3,71 152.9,69.7 153.8,68.6 C165.5,53.3 153.6,28.7 152.5,26.5 C152.4,26.4 152.4,26.3 152.4,26.2 C151.8,24.2 145,4.7 124,2 C123.6,2 123.3,1.8 122.9,1.6 C119.5,-0.8 112.5,-0.1 109.7,1.4 C109.3,1.6 108.9,2 108.8,2.5 C107.6,5.7 99.9,6.7 96.6,5.9 C90.5,3.7 81.3,13.4 79.9,16.6 C79.7,17 79.5,17.4 79.2,17.8 C76.8,20.3 67,31.2 56.6,35.3 C56.6,35.3 14,54 5.7,57.7 C-1.7,61 0.4,65.8 1,66.8 C1.1,66.9 1.1,67.1 1.2,67.2 C2.3,70.4 13.2,102.3 17.5,109.8 C17.7,110.1 17.9,110.3 18.2,110.5 C21,112.4 24.4,110.8 25.2,110.3 C25.4,110.2 25.5,110.2 25.7,110.1 L37.2,106.8 C38.9,106.3 40.4,105.1 41,103.4 C41,103.6 42.4,99.4 50.4,96.5"></path>
                    <path d="M102.4,51.7 C109.9,73.5 123.4,77.4 139.6,70.2 C155.8,63 160.3,54.9 149.6,27.4 C139.7,1.8 120.7,9.6 115.4,10.4 C115.1,10.4 114.9,10.6 114.6,10.6 C93.8,15.1 94.9,30 102.4,51.7 L102.4,51.7 Z"></path>
                    <path d="M118,140 C118.4,152.1 124.8,171.8 157.2,161.8 C186.3,152.8 184.6,134.4 183.6,125.3 C182.6,116.2 185.2,94.4 148.1,100.2 C113.2,105.5 118.1,136 118,140 L118,140 Z"></path>
                </g>
            </g>
        </g>
    </g>
</svg>