<?xml version="1.0" encoding="UTF-8" standalone="no"?>
<svg width="94px" height="142px" viewBox="0 0 94 142" version="1.1" xmlns="http://www.w3.org/2000/svg" xmlns:xlink="http://www.w3.org/1999/xlink" xmlns:sketch="http://www.bohemiancoding.com/sketch/ns">
    <!-- Generator: Sketch 3.3 (11970) - http://www.bohemiancoding.com/sketch -->
    <title>Shape</title>
    <desc>Created with Sketch.</desc>
    <defs></defs>
    <g id="Page-1" stroke="none" stroke-width="1" fill="none" fill-rule="evenodd" sketch:type="MSPage">
        <g id="Map_Pin_Blue-01" sketch:type="MSLayerGroup" fill="#0299CC">
            <g id="Group" sketch:type="MSShapeGroup">
                <path d="M47,0.28125 C21.4,0.28125 0.5,21.08125 0.5,46.78125 C0.5,51.48125 1.2,56.08125 2.5,60.38125 C5.3,74.78125 22.4,104.48125 46.2,141.38125 C46.4,141.68125 46.7,141.78125 46.9,141.68125 L46.9,93.28125 L46.9,76.78125 C30.3,76.78125 16.9,63.38125 16.9,46.78125 C16.9,30.18125 30.3,16.78125 46.9,16.78125 C63.5,16.78125 76.9,30.18125 76.9,46.78125 C76.9,63.38125 63.5,76.78125 46.9,76.78125 L46.9,93.28125 L46.9,141.68125 C47.2,141.78125 47.5,141.68125 47.6,141.38125 C71.4,104.48125 88.5,74.78125 91.3,60.38125 C92.6,56.08125 93.3,51.48125 93.3,46.78125 C93.5,21.08125 72.7,0.28125 47,0.28125 L47,0.28125 Z" id="Shape"></path>
            </g>
        </g>
    </g>
</svg>