<?xml version="1.0" encoding="UTF-8" standalone="no"?>
<svg width="133px" height="178px" viewBox="0 0 133 178" version="1.1" xmlns="http://www.w3.org/2000/svg" xmlns:xlink="http://www.w3.org/1999/xlink" xmlns:sketch="http://www.bohemiancoding.com/sketch/ns">
    <!-- Generator: Sketch 3.3 (11970) - http://www.bohemiancoding.com/sketch -->
    <title>Shape</title>
    <desc>Created with Sketch.</desc>
    <defs>
        <filter x="-50%" y="-50%" width="200%" height="200%" filterUnits="objectBoundingBox" id="filter-1">
            <feGaussianBlur stdDeviation="7.16337316" in="SourceGraphic" result="blur"></feGaussianBlur>
        </filter>
    </defs>
    <g id="Page-1" stroke="none" stroke-width="1" fill="none" fill-rule="evenodd" sketch:type="MSPage">
        <g id="Shape" sketch:type="MSLayerGroup" transform="translate(20.000000, 20.000000)" filter="url(#filter-1)" fill="#DC3B54">
            <g id="Page-1" sketch:type="MSShapeGroup">
                <g id="pip">
                    <g id="Group">
                        <path d="M47,0.3 C21.4,0.3 0.5,21.1 0.5,46.8 C0.5,51.5 1.2,56.1 2.5,60.4 C5.3,74.8 22.4,104.5 46.2,141.4 C46.4,141.7 46.7,141.8 46.9,141.7 L46.9,93.3 L46.9,76.8 C30.3,76.8 16.9,63.4 16.9,46.8 C16.9,30.2 30.3,16.8 46.9,16.8 C63.5,16.8 76.9,30.2 76.9,46.8 C76.9,63.4 63.5,76.8 46.9,76.8 L46.9,93.3 L46.9,141.7 C47.2,141.8 47.5,141.7 47.6,141.4 C71.4,104.5 88.5,74.8 91.3,60.4 C92.6,56.1 93.3,51.5 93.3,46.8 C93.5,21.1 72.7,0.3 47,0.3 L47,0.3 L47,0.3 Z" id="Shape"></path>
                    </g>
                </g>
            </g>
        </g>
    </g>
</svg>