<?xml version="1.0" encoding="UTF-8" standalone="no"?>
<svg width="65px" height="82px" viewBox="0 0 65 82" version="1.1" xmlns="http://www.w3.org/2000/svg" xmlns:xlink="http://www.w3.org/1999/xlink" xmlns:sketch="http://www.bohemiancoding.com/sketch/ns">
    <!-- Generator: Sketch 3.3 (11970) - http://www.bohemiancoding.com/sketch -->
    <title>Group</title>
    <desc>Created with Sketch.</desc>
    <defs></defs>
    <g id="Page-1" stroke="none" stroke-width="1" fill="none" fill-rule="evenodd" sketch:type="MSPage">
        <g id="Bashka" sketch:type="MSLayerGroup">
            <g id="Group" sketch:type="MSShapeGroup">
                <path d="M62.5261194,39.855814 C61.3134328,37.7104651 60.0522388,35.5174419 60.2462687,34.0872093 C60.2947761,33.5627907 60.391791,33.0383721 60.4402985,32.5139535 C61.6044776,24.1232558 62.5261194,17.4965116 55.4440299,10.3453488 C55.4440299,10.3453488 55.4440299,10.3453488 55.3955224,10.2976744 C48.119403,3.5755814 40.2126866,0.190697674 31.9664179,0.190697674 C19.5485075,0.190697674 10.0895522,7.81860465 6.40298507,12.3 C1.26119403,18.5930233 -1.84328358,30.177907 2.4738806,39.1883721 C3.39552239,41.1430233 4.80223881,43.1453488 6.25746269,45.2430233 C9.60447761,50.0581395 13.3395522,55.4930233 11.5447761,61.0709302 C11.3992537,61.5 11.5447761,61.9290698 11.8358209,62.2151163 L32.4029851,81.5232558 C32.5970149,81.7139535 32.8880597,81.8569767 33.1791045,81.8569767 C33.2761194,81.8569767 33.3731343,81.8569767 33.4701493,81.8093023 C33.858209,81.7139535 34.1492537,81.3802326 34.2462687,80.9988372 C35.5074627,76.2313953 39,68.2697674 43.0261194,67.1732558 C43.3656716,67.077907 43.8022388,67.0302326 44.3358209,67.0302326 C45.3544776,67.0302326 46.5671642,67.1732558 47.8768657,67.3162791 C49.4291045,67.5069767 50.9813433,67.65 52.4850746,67.65 C55.8320896,67.65 57.6268657,66.6488372 57.9664179,64.5511628 C58.1604478,63.3593023 58.3544776,62.072093 58.5,60.8802326 C59.1791045,55.7790698 59.858209,50.5348837 63.8358209,47.8651163 C66.261194,46.3395349 64.369403,43.05 62.5261194,39.855814 L62.5261194,39.855814 Z" id="Shape" fill="#009ACF"></path>
                <path d="M48.5074627,21.1674419 L47.8283582,18.2593023 C47.7313433,17.7825581 47.1977612,17.4488372 46.7126866,17.544186 L45.3059701,17.877907 C45.0149254,17.4011628 44.6753731,16.9244186 44.2873134,16.4953488 L45.0634328,15.3034884 C45.3544776,14.8744186 45.2089552,14.3023256 44.7723881,14.0162791 L42.2014925,12.4430233 C41.7649254,12.1569767 41.1828358,12.3 40.891791,12.7290698 L40.1156716,13.9209302 C39.5335821,13.777907 38.9514925,13.6825581 38.369403,13.6348837 L38.0298507,12.2523256 C37.9328358,11.7755814 37.3992537,11.4418605 36.9141791,11.5372093 L33.9552239,12.2046512 C33.4701493,12.3 33.130597,12.8244186 33.2276119,13.3011628 L33.5671642,14.6837209 C33.0820896,14.9697674 32.5970149,15.3034884 32.1604478,15.6848837 L30.9477612,14.922093 C30.511194,14.6360465 29.9291045,14.7790698 29.6380597,15.2081395 L28.0373134,17.7348837 C27.7462687,18.1639535 27.891791,18.7360465 28.3283582,19.022093 L29.5410448,19.7848837 C29.3955224,20.3569767 29.2985075,20.9290698 29.25,21.5011628 L27.8432836,21.8348837 C27.358209,21.9302326 27.0186567,22.4546512 27.1156716,22.9313953 L27.7947761,25.8395349 C27.891791,26.3162791 28.4253731,26.65 28.9104478,26.5546512 L30.3171642,26.2209302 C30.608209,26.6976744 30.9477612,27.1744186 31.3358209,27.6034884 L30.5597015,28.7953488 C30.2686567,29.2244186 30.4141791,29.7965116 30.8507463,30.0825581 L33.4216418,31.655814 C33.858209,31.9418605 34.4402985,31.7988372 34.7313433,31.3697674 L35.5074627,30.177907 C36.0895522,30.3209302 36.6716418,30.4162791 37.2537313,30.4639535 L37.5932836,31.8465116 C37.6902985,32.3232558 38.2238806,32.6569767 38.7089552,32.5616279 L41.6679104,31.894186 C42.1529851,31.7988372 42.4925373,31.2744186 42.3955224,30.7976744 L42.0559701,29.4151163 C42.5410448,29.1290698 43.0261194,28.7953488 43.4626866,28.4139535 L44.6753731,29.1767442 C45.1119403,29.4627907 45.6940299,29.3197674 45.9850746,28.8906977 L47.5858209,26.3639535 C47.8768657,25.9348837 47.7313433,25.3627907 47.2947761,25.0767442 L46.0820896,24.3139535 C46.2276119,23.7418605 46.3246269,23.1697674 46.3731343,22.5976744 L47.7798507,22.2639535 C48.3134328,22.1686047 48.6044776,21.6918605 48.5074627,21.1674419 L48.5074627,21.1674419 Z M37.8843284,24.9813953 C36.2350746,24.9813953 34.8768657,23.6465116 34.8768657,22.0255814 C34.8768657,20.4046512 36.2350746,19.0697674 37.8843284,19.0697674 C39.5335821,19.0697674 40.891791,20.4046512 40.891791,22.0255814 C40.891791,23.6465116 39.5820896,24.9813953 37.8843284,24.9813953 L37.8843284,24.9813953 Z" id="Shape" fill="#FFFFFF"></path>
                <path d="M25.7574627,22.0255814 L24.641791,20.1186047 C24.4477612,19.7848837 24.011194,19.6895349 23.7201493,19.8802326 L22.7985075,20.4046512 C22.5074627,20.1186047 22.1679104,19.8325581 21.7798507,19.6418605 L22.0708955,18.6406977 C22.1679104,18.2593023 21.9738806,17.9255814 21.5858209,17.7825581 L19.4029851,17.1627907 C19.0149254,17.0674419 18.6753731,17.2581395 18.5298507,17.6395349 L18.238806,18.6406977 C17.8022388,18.6406977 17.3656716,18.6883721 16.9776119,18.7837209 L16.4440299,17.877907 C16.25,17.544186 15.8134328,17.4488372 15.5223881,17.6395349 L13.5820896,18.7360465 C13.2425373,18.9267442 13.1455224,19.355814 13.3395522,19.6418605 L13.8731343,20.5476744 C13.5820896,20.8337209 13.2910448,21.1674419 13.0970149,21.5488372 L12.0783582,21.2627907 C11.6902985,21.1674419 11.3507463,21.3581395 11.2052239,21.7395349 L10.6231343,23.8372093 C10.5261194,24.2186047 10.7201493,24.5523256 11.108209,24.6953488 L12.1268657,24.9813953 C12.1268657,25.4104651 12.1753731,25.8395349 12.2723881,26.2209302 L11.3507463,26.7453488 C11.011194,26.9360465 10.9141791,27.3651163 11.108209,27.6511628 L12.2238806,29.5581395 C12.4179104,29.8918605 12.8544776,29.9872093 13.1455224,29.7965116 L14.0671642,29.272093 C14.358209,29.5581395 14.6977612,29.844186 15.0858209,30.0348837 L14.7947761,31.0360465 C14.6977612,31.4174419 14.891791,31.7511628 15.2798507,31.894186 L17.4141791,32.4662791 C17.8022388,32.5616279 18.141791,32.3709302 18.2873134,31.9895349 L18.5783582,30.9883721 C19.0149254,30.9883721 19.4514925,30.9406977 19.8395522,30.8453488 L20.3731343,31.7511628 C20.5671642,32.0848837 21.0037313,32.1802326 21.2947761,31.9895349 L23.2350746,30.8930233 C23.5746269,30.7023256 23.6716418,30.2732558 23.4776119,29.9872093 L22.9440299,29.0813953 C23.2350746,28.7953488 23.5261194,28.4616279 23.7201493,28.0802326 L24.738806,28.3662791 C25.1268657,28.4616279 25.4664179,28.2709302 25.6119403,27.8895349 L26.1940299,25.7918605 C26.2910448,25.4104651 26.0970149,25.0767442 25.7089552,24.9337209 L24.738806,24.7430233 C24.738806,24.3139535 24.6902985,23.8848837 24.5932836,23.5034884 L25.5149254,22.9790698 C25.8059701,22.7406977 25.9514925,22.3593023 25.7574627,22.0255814 L25.7574627,22.0255814 Z M19.0634328,26.9837209 C17.8992537,27.3174419 16.6380597,26.6976744 16.25,25.505814 C15.9104478,24.3616279 16.5410448,23.122093 17.7537313,22.7406977 C18.9179104,22.4069767 20.1791045,23.0267442 20.5671642,24.2186047 C20.9067164,25.4104651 20.2761194,26.65 19.0634328,26.9837209 L19.0634328,26.9837209 Z" id="Shape" fill="#FFFFFF"></path>
                <path d="M33.6641791,34.4209302 L32.8395522,32.9906977 C32.6940299,32.7523256 32.3544776,32.6569767 32.1119403,32.8 L31.4328358,33.1813953 C31.1902985,32.9430233 30.9477612,32.7523256 30.6567164,32.6093023 L30.8507463,31.8465116 C30.9477612,31.5604651 30.7537313,31.2744186 30.4626866,31.2267442 L28.8134328,30.7976744 C28.5223881,30.7023256 28.2313433,30.8930233 28.1828358,31.1790698 L27.988806,31.9418605 C27.6492537,31.9418605 27.358209,31.9895349 27.0186567,32.0848837 L26.630597,31.4174419 C26.4850746,31.1790698 26.1455224,31.0837209 25.9029851,31.2267442 L24.4477612,32.0372093 C24.2052239,32.1802326 24.108209,32.5139535 24.2537313,32.7523256 L24.641791,33.4197674 C24.3992537,33.6581395 24.2052239,33.8965116 24.0597015,34.1825581 L23.2835821,33.8965116 C22.9925373,33.8011628 22.7014925,33.9918605 22.6529851,34.277907 L22.2164179,35.8988372 C22.119403,36.1848837 22.3134328,36.4709302 22.6044776,36.5186047 L23.380597,36.7093023 C23.380597,37.0430233 23.4291045,37.3767442 23.5261194,37.6627907 L22.8470149,38.044186 C22.6044776,38.1872093 22.5074627,38.5209302 22.6529851,38.7593023 L23.4776119,40.1895349 C23.6231343,40.427907 23.9626866,40.5232558 24.2052239,40.3802326 L24.8843284,39.9988372 C25.1268657,40.2372093 25.369403,40.427907 25.6604478,40.5709302 L25.4664179,41.3337209 C25.369403,41.6197674 25.5634328,41.905814 25.8544776,41.9534884 L27.5037313,42.3825581 C27.7947761,42.477907 28.0858209,42.2872093 28.1343284,42.0011628 L28.3283582,41.2383721 C28.6679104,41.2383721 28.9589552,41.1906977 29.2985075,41.0953488 L29.6865672,41.7627907 C29.8320896,42.0011628 30.1716418,42.0965116 30.4141791,41.9534884 L31.869403,41.1430233 C32.1119403,41 32.2089552,40.6662791 32.0634328,40.427907 L31.6753731,39.7604651 C31.9179104,39.522093 32.1119403,39.2837209 32.2574627,38.9976744 L33.0335821,39.1883721 C33.3246269,39.2837209 33.6156716,39.0930233 33.6641791,38.8069767 L34.1007463,37.1860465 C34.1977612,36.9 34.0037313,36.6139535 33.7126866,36.5662791 L32.9365672,36.3755814 C32.9365672,36.0418605 32.8880597,35.7081395 32.7910448,35.422093 L33.4701493,35.0406977 C33.7126866,34.9930233 33.8097015,34.6593023 33.6641791,34.4209302 L33.6641791,34.4209302 Z M28.619403,38.1872093 C27.7462687,38.4732558 26.7761194,37.9488372 26.5335821,37.0906977 C26.2425373,36.2325581 26.7761194,35.2790698 27.6492537,35.0406977 C28.5223881,34.7546512 29.4925373,35.2790698 29.7350746,36.1372093 C30.0261194,36.9953488 29.4925373,37.9011628 28.619403,38.1872093 L28.619403,38.1872093 Z" id="Shape" fill="#FFFFFF"></path>
            </g>
        </g>
    </g>
</svg>