<?xml version="1.0" encoding="UTF-8" standalone="no"?>
<svg width="86px" height="57px" viewBox="0 0 86 57" version="1.1" xmlns="http://www.w3.org/2000/svg" xmlns:xlink="http://www.w3.org/1999/xlink" xmlns:sketch="http://www.bohemiancoding.com/sketch/ns">
    <!-- Generator: Sketch 3.3 (11970) - http://www.bohemiancoding.com/sketch -->
    <title>battery</title>
    <desc>Created with Sketch.</desc>
    <defs></defs>
    <g id="Page-1" stroke="none" stroke-width="1" fill="none" fill-rule="evenodd" sketch:type="MSPage">
        <g id="battery" sketch:type="MSLayerGroup">
            <g id="Page-1" sketch:type="MSShapeGroup">
                <g id="Battery">
                    <g id="Group">
                        <rect id="Rectangle-path" fill="#8DC63F" x="0.255952381" y="14.0973214" width="11.0059524" height="28.6526786"></rect>
                        <path d="M71.0011905,0.152678571 L5.68214286,0.152678571 C2.66190476,0.152678571 0.255952381,2.59553571 0.255952381,5.59821429 L0.255952381,51.4017857 C0.255952381,54.4044643 2.71309524,56.8473214 5.68214286,56.8473214 L71.0011905,56.8473214 C74.0214286,56.8473214 76.427381,54.4044643 76.427381,51.4017857 L76.427381,5.59821429 C76.4785714,2.59553571 74.0214286,0.152678571 71.0011905,0.152678571 L71.0011905,0.152678571 L71.0011905,0.152678571 Z M65.4214286,42.1392857 C65.4214286,42.5973214 65.0119048,42.75 64.5,42.4955357 L46.225,33.3348214 C45.7130952,33.0803571 45.3035714,33.2330357 45.3547619,33.6910714 L45.4571429,39.0857143 C45.4571429,39.54375 45.15,39.6455357 44.6892857,39.2892857 L11.5690476,14.6571429 C11.1595238,14.3517857 11.2107143,14.3008929 11.722619,14.5044643 L34.6559524,25.1919643 C35.1678571,25.4464286 35.577381,25.29375 35.577381,24.8357143 L35.577381,18.0160714 C35.577381,17.5580357 35.9869048,17.4053571 36.4988095,17.6598214 L64.5511905,31.4008929 C65.0630952,31.6553571 65.472619,32.2151786 65.472619,32.6223214 L65.472619,42.1392857 L65.4214286,42.1392857 L65.4214286,42.1392857 Z M80.3178571,12.0107143 L79.7547619,12.0107143 C79.447619,12.0107143 79.1916667,12.4178571 79.1916667,12.9267857 L79.1916667,44.1241071 C79.1916667,44.6330357 79.447619,45.0401786 79.7547619,45.0401786 L80.3178571,45.0401786 C83.3380952,45.0401786 85.7440476,42.5973214 85.7440476,39.5946429 L85.7440476,17.45625 C85.7440476,14.4535714 83.2869048,12.0107143 80.3178571,12.0107143 L80.3178571,12.0107143 L80.3178571,12.0107143 Z" id="Shape" fill="#009ACF"></path>
                    </g>
                </g>
            </g>
        </g>
    </g>
</svg>