<?xml version="1.0" encoding="UTF-8" standalone="no"?>
<svg width="80px" height="80px" viewBox="0 0 80 80" version="1.1" xmlns="http://www.w3.org/2000/svg" xmlns:xlink="http://www.w3.org/1999/xlink" xmlns:sketch="http://www.bohemiancoding.com/sketch/ns">
    <!-- Generator: Sketch 3.3 (11970) - http://www.bohemiancoding.com/sketch -->
    <title>Group</title>
    <desc>Created with Sketch.</desc>
    <defs></defs>
    <g id="Page-1" stroke="none" stroke-width="1" fill="none" fill-rule="evenodd" sketch:type="MSPage">
        <g id="In-Yan" sketch:type="MSLayerGroup">
            <g id="Group" sketch:type="MSShapeGroup">
                <path d="M56.4155844,3.79220779 C51.2207792,1.45454545 45.6623377,0.25974026 40,0.25974026 C24.4155844,0.25974026 10.1818182,9.45454545 3.74025974,23.6363636 C-5.2987013,43.6363636 3.58441558,67.2727273 23.5844156,76.3116883 C28.7792208,78.6493506 34.3376623,79.8441558 40,79.8441558 C55.5844156,79.8441558 69.8181818,70.6493506 76.2597403,56.4675325 C85.2987013,36.4675325 76.4155844,12.8311688 56.4155844,3.79220779 L56.4155844,3.79220779 Z M55.2207792,65.4025974 C53.038961,72.1038961 44.987013,78.1818182 32.5194805,75.6363636 L32.5194805,75.6363636 C29.974026,75.1168831 27.4285714,74.2857143 24.987013,73.1428571 C6.75324675,64.8831169 -1.35064935,43.3246753 6.90909091,25.038961 C10.7532468,16.5714286 17.6103896,10.0779221 25.8701299,6.54545455 C26.3376623,6.33766234 27.012987,6.44155844 26.2337662,7.06493506 C22.8051948,9.66233766 21.6103896,12.0519481 20.7792208,15.8961039 C19.1168831,23.5324675 23.1168831,34.2857143 39.3246753,41.6103896 C54.4935065,48.5194805 57.4025974,58.7532468 55.2207792,65.4025974 L55.2207792,65.4025974 Z" id="Shape" fill="#009ACF"></path>
                <path d="M43.6883117,54.961039 C47.0649351,54.961039 49.8181818,57.7142857 49.8181818,61.0909091 C49.8181818,64.4675325 47.0649351,67.2207792 43.6883117,67.2207792 C40.3116883,67.2207792 37.5584416,64.4675325 37.5584416,61.0909091 C37.5584416,57.6623377 40.3116883,54.961039 43.6883117,54.961039 L43.6883117,54.961039 Z" id="Shape" fill="#009ACF"></path>
                <circle id="Oval" fill="#FFFFFF" cx="36.2077922" cy="21.1948052" r="6.12987013"></circle>
            </g>
        </g>
    </g>
</svg>