<?xml version="1.0" encoding="UTF-8" standalone="no"?>
<svg width="88px" height="91px" viewBox="0 0 88 91" version="1.1" xmlns="http://www.w3.org/2000/svg" xmlns:xlink="http://www.w3.org/1999/xlink" xmlns:sketch="http://www.bohemiancoding.com/sketch/ns">
    <!-- Generator: Sketch 3.3 (11970) - http://www.bohemiancoding.com/sketch -->
    <title>Shape</title>
    <desc>Created with Sketch.</desc>
    <defs></defs>
    <g id="Page-1" stroke="none" stroke-width="1" fill="none" fill-rule="evenodd" sketch:type="MSPage">
        <g id="KluchNa13" sketch:type="MSLayerGroup" fill="#009ACF">
            <path d="M42.6232965,52.5120459 L47.7353868,47.2921606 L42.5071127,41.9575526 L37.3950224,47.1774379 C35.2456208,45.6860421 32.8057595,44.6535373 30.1916224,44.1372849 L30.1916224,36.6803059 L22.8139466,36.6803059 L22.8139466,44.0799235 C20.1998096,44.5961759 17.7599483,45.6286807 15.6105467,47.1200765 L10.4984564,41.9001912 L5.27018223,47.2347992 L10.3822725,52.4546845 C8.92997414,54.6344168 7.94241125,57.100956 7.41958383,59.8543021 L0.1,59.8543021 L0.1,67.4260038 L7.36149189,67.4260038 C7.88431931,70.1219885 8.87188221,72.5885277 10.3241806,74.8256214 L5.21209029,80.0455067 L10.4403645,85.3801147 L15.5524548,80.1602294 C17.7018564,81.6516252 20.1417176,82.68413 22.7558547,83.2003824 L22.7558547,90.6 L30.1335305,90.6 L30.1335305,83.2003824 C32.7476676,82.68413 35.1875288,81.6516252 37.3369304,80.1602294 L42.4490207,85.3801147 L47.6772949,80.0455067 L42.5652046,74.8256214 C44.017503,72.6458891 45.0050659,70.1219885 45.5278933,67.4260038 L52.7893852,67.4260038 L52.7893852,59.9116635 L45.5278933,59.9116635 C45.0631578,57.1583174 44.0755949,54.6917782 42.6232965,52.5120459 L42.6232965,52.5120459 Z" id="Shape" sketch:type="MSShapeGroup"></path>
            <path d="M26.4737386,71.8428298 C22.0587515,71.8428298 18.3989596,68.1717017 18.3989596,63.5827916 C18.3989596,58.9938815 22.0006596,55.3227533 26.4737386,55.3227533 C30.9468176,55.3227533 34.5485175,58.9938815 34.5485175,63.5827916 C34.5485175,68.1717017 30.9468176,71.8428298 26.4737386,71.8428298 L26.4737386,71.8428298 Z M85.3208689,59.682218 L85.3208689,59.682218 L49.4200529,22.68413 L49.4200529,5.36099426 L31.9924724,0.6 L30.1335305,2.49292543 L39.3701482,11.9001912 L30.3658982,21.1353728 L21.1292805,11.6707457 L19.2703386,13.5636711 L23.9176934,31.2883365 L40.4738949,31.3456979 L40.3577111,31.4604207 L76.5489867,68.6305927 L76.6070786,68.5732314 C79.0469399,70.9824092 82.8810076,70.9824092 85.2627769,68.51587 C87.7026382,66.1066922 87.7026382,62.1487572 85.3208689,59.682218 L85.3208689,59.682218 Z M82.9971915,66.2214149 C81.8934447,67.3112811 80.2087786,67.3112811 79.1050318,66.2214149 C78.059377,65.1315488 78.001285,63.3533461 79.1050318,62.2634799 C80.2087786,61.1736138 81.8934447,61.1736138 82.9971915,62.2634799 C84.0428463,63.3533461 84.1009382,65.1315488 82.9971915,66.2214149 L82.9971915,66.2214149 Z" sketch:type="MSShapeGroup"></path>
        </g>
    </g>
</svg>