<?xml version="1.0" encoding="UTF-8" standalone="no"?>
<svg width="70px" height="87px" viewBox="0 0 70 87" version="1.1" xmlns="http://www.w3.org/2000/svg" xmlns:xlink="http://www.w3.org/1999/xlink" xmlns:sketch="http://www.bohemiancoding.com/sketch/ns">
    <!-- Generator: Sketch 3.3 (11970) - http://www.bohemiancoding.com/sketch -->
    <title>Group</title>
    <desc>Created with Sketch.</desc>
    <defs></defs>
    <g id="Page-1" stroke="none" stroke-width="1" fill="none" fill-rule="evenodd" sketch:type="MSPage">
        <g id="MedalOfHonor" sketch:type="MSLayerGroup">
            <g id="Group" sketch:type="MSShapeGroup">
                <path d="M35.2631579,41.4963636 L35.2631579,41.4963636 C38.1052632,36.3818182 45.8947368,38.4909091 45.7894737,44.3436364 L45.7894737,44.3436364 C50.7894737,41.3381818 56.4736842,47.0327273 53.4736842,52.0418182 L53.4736842,52.0418182 C59.3157895,51.9363636 61.3684211,59.74 56.3157895,62.5872727 L56.3157895,62.5872727 C61.4210526,65.4345455 59.3157895,73.2381818 53.4736842,73.1327273 L53.4736842,73.1327273 C56.4736842,78.1418182 50.7894737,83.8363636 45.7894737,80.8309091 L45.7894737,80.8309091 C45.8947368,86.6836364 38.1052632,88.74 35.2631579,83.6781818 L35.2631579,83.6781818 C32.4210526,88.7927273 24.6315789,86.6836364 24.7368421,80.8309091 L24.7368421,80.8309091 C19.7368421,83.8363636 14.0526316,78.1418182 17.0526316,73.1327273 L17.0526316,73.1327273 C11.2105263,73.2381818 9.15789474,65.4345455 14.2105263,62.5872727 L14.2105263,62.5872727 C9.10526316,59.74 11.2105263,51.9363636 17.0526316,52.0418182 L17.0526316,52.0418182 C14.0526316,47.0327273 19.7368421,41.3381818 24.7368421,44.3436364 L24.7368421,44.3436364 C24.6315789,38.4381818 32.4210526,36.3818182 35.2631579,41.4963636 L35.2631579,41.4963636 L35.2631579,41.4963636 Z" id="Shape" fill="#009ACF"></path>
                <path d="M0.473684211,11.3363636 L17.6315789,38.5963636 C19.0526316,40.4418182 21.7368421,40.02 22.7894737,38.5963636 C22.7894737,38.5963636 30.1578947,25.7836364 32.4736842,21.7763636 C32.8947368,21.0381818 32.8947368,20.1418182 32.4736842,19.4036364 L22.4736842,1.68727273 C22.4736842,1.68727273 20.8947368,-0.685454545 18.1052632,0.527272727 C15.2631579,1.74 2.89473684,7.22363636 1.94736842,7.75090909 C0.947368421,8.27818182 -0.315789474,10.1236364 0.473684211,11.3363636 L0.473684211,11.3363636 Z" id="Shape" fill="#009ACF"></path>
                <path d="M31.8421053,34.3254545 C31.0526316,33.9563636 30.7368421,33.0072727 31.1578947,32.2690909 L48.3157895,1.79272727 C49.3157895,-0.105454545 51.2631579,0.0527272727 53.0526316,1.21272727 C55.0526316,2.32 68,7.96181818 68,7.96181818 C70.0526316,8.80545455 69.7368421,11.2836364 68.5263158,13.2345455 C68.5263158,13.2872727 52.4210526,38.6490909 52.4210526,38.6490909 C52.4210526,38.6490909 50.2105263,43.4472727 48.0526316,38.9654545 C46.6315789,36.0654545 42.7894737,31.2145455 36.3157895,35.6436364 C35.8947368,35.9072727 35.3684211,35.96 34.8947368,35.8018182 L31.8421053,34.3254545 L31.8421053,34.3254545 Z" id="Shape" fill="#009ACF"></path>
                <path d="M30.7368421,56.9981818 L34.5263158,46.8218182 C34.7368421,46.2945455 35.4736842,46.2945455 35.6842105,46.7690909 L39.9473684,56.7872727 C40.0526316,56.9981818 40.2631579,57.1563636 40.5263158,57.1563636 L50.2631579,57.3145455 C50.8421053,57.3145455 51.1052632,58.0527273 50.6315789,58.4218182 L42.4210526,65.0127273 C42.2105263,65.1709091 42.1578947,65.4345455 42.2105263,65.6981818 L45.2105263,75.4 C45.3684211,75.98 44.7368421,76.4545455 44.2631579,76.0854545 L35.5263158,69.7581818 C35.3157895,69.6 35,69.6 34.7894737,69.7581818 L26.5263158,76.1909091 C26.0526316,76.56 25.3684211,76.0854545 25.5263158,75.5054545 L28.3684211,65.8036364 C28.4210526,65.54 28.3684211,65.2763636 28.1578947,65.1181818 L19.7368421,58.6854545 C19.2631579,58.3163636 19.5263158,57.5781818 20.1052632,57.5781818 L30.1052632,57.2090909 C30.4736842,57.3672727 30.6842105,57.2090909 30.7368421,56.9981818 L30.7368421,56.9981818 Z" id="Shape" fill="#FFFFFF"></path>
            </g>
        </g>
    </g>
</svg>