<?xml version="1.0" encoding="UTF-8" standalone="no"?>
<svg width="153px" height="121px" viewBox="0 0 153 121" version="1.1" xmlns="http://www.w3.org/2000/svg" xmlns:xlink="http://www.w3.org/1999/xlink" xmlns:sketch="http://www.bohemiancoding.com/sketch/ns">
    <!-- Generator: Sketch 3.3 (11970) - http://www.bohemiancoding.com/sketch -->
    <title>Shape</title>
    <desc>Created with Sketch.</desc>
    <defs></defs>
    <g id="Page-1" stroke="none" stroke-width="1" fill="none" fill-rule="evenodd" sketch:type="MSPage">
        <g id="Ne_Zaebis" sketch:type="MSLayerGroup" fill="#009ACF">
            <path d="M0.7,120.5 L35.7,120.5 L35.7,40 L0.7,40 L0.7,120.5 L0.7,120.5 Z M18.2,46.5 C23.3,46.5 27.5,50.6 27.5,55.8 C27.5,60.9 23.4,65.1 18.2,65.1 C13.1,65.1 8.9,61 8.9,55.8 C9,50.6 13.1,46.5 18.2,46.5 L18.2,46.5 Z M150.8,42.9 C150.8,42.9 159.4,22 137.1,21 C137,18.9 135.1,15.7 130.3,11.2 C130.3,11.2 129.2,9.5 119.5,1.9 C116.7,-0.3 112.8,0.1 109.5,1.3 C105.2,2.8 101,0.9 89.1,4.7 C89.1,4.7 62.5,11.4 58.2,26.8 C58.2,26.8 52.5,44.3 42.9,44.6 L42.9,105.4 C46.1,105.3 56.4,104.9 67.3,108.7 C67.3,108.7 87.2,113.4 100.2,113.4 C100.2,113.4 126.5,114 134.6,107.8 C134.6,107.8 141.6,102.6 140.2,95.7 C140.2,95.7 138.9,91.2 142.3,88.6 C142.3,88.6 152.4,82.2 147.5,72.1 C147.5,72.1 144.9,67.5 149,63.5 C149,63.5 155.1,58.8 150.9,53.1 C150.8,53.3 148,48.4 150.8,42.9 L150.8,42.9 Z M98.7,19.9 C98.7,19.9 99.1,20.6 99.8,21.5 C99.3,21 98.9,20.5 98.7,19.9 L98.7,19.9 Z" id="Shape" sketch:type="MSShapeGroup"></path>
        </g>
    </g>
</svg>