<?xml version="1.0" encoding="UTF-8" standalone="no"?>
<svg width="49px" height="81px" viewBox="0 0 49 81" version="1.1" xmlns="http://www.w3.org/2000/svg" xmlns:xlink="http://www.w3.org/1999/xlink" xmlns:sketch="http://www.bohemiancoding.com/sketch/ns">
    <!-- Generator: Sketch 3.3 (11970) - http://www.bohemiancoding.com/sketch -->
    <title>Watch-02</title>
    <desc>Created with Sketch.</desc>
    <defs></defs>
    <g id="Page-1" stroke="none" stroke-width="1" fill="none" fill-rule="evenodd" sketch:type="MSPage">
        <g id="watch" sketch:type="MSLayerGroup">
            <g id="Page-1" sketch:type="MSShapeGroup">
                <g id="Watch-02">
                    <path d="M39.004,16.7926829 L9.996,16.7926829 C4.655,16.7926829 0.294,21.1390244 0.294,26.5719512 L0.294,55.8109756 C0.294,61.1945122 4.606,65.5902439 9.996,65.5902439 L39.053,65.5902439 C44.394,65.5902439 48.755,61.1945122 48.755,55.8109756 L48.755,26.522561 C48.706,21.1390244 44.394,16.7926829 39.004,16.7926829 L39.004,16.7926829 L39.004,16.7926829 Z M36.995,0.444512195 L12.005,0.444512195 L12.005,14.8170732 L36.995,14.8170732 L36.995,0.444512195 L36.995,0.444512195 Z M12.005,80.6542683 L36.995,80.6542683 L36.995,67.7140244 L12.005,67.7140244 L12.005,80.6542683 L12.005,80.6542683 Z" id="Shape" fill="#009ACF"></path>
                    <path d="M35.329,40.697561 L24.647,40.697561 C23.716,40.697561 22.981,39.9567073 22.981,39.0182927 L22.981,39.0182927 C22.981,38.079878 23.716,37.3390244 24.647,37.3390244 L35.329,37.3390244 C36.26,37.3390244 36.995,38.079878 36.995,39.0182927 L36.995,39.0182927 C36.995,39.9567073 36.26,40.697561 35.329,40.697561 L35.329,40.697561 L35.329,40.697561 Z" id="Shape" fill="#FFFFFF"></path>
                    <path d="M41.356,40.697561 L24.598,40.697561 C23.667,40.697561 22.932,39.9567073 22.932,39.0182927 L22.932,39.0182927 C22.932,38.079878 23.667,37.3390244 24.598,37.3390244 L41.356,37.3390244 C42.287,37.3390244 43.022,38.079878 43.022,39.0182927 L43.022,39.0182927 C43.022,39.9567073 42.287,40.697561 41.356,40.697561 L41.356,40.697561 L41.356,40.697561 Z" id="Shape" fill="#FFFFFF"></path>
                    <path d="M44.296,39.7097561 L23.667,39.7097561 C23.275,39.7097561 22.981,39.4134146 22.981,39.0182927 L22.981,39.0182927 C22.981,38.6231707 23.275,38.3268293 23.667,38.3268293 L44.296,38.3268293 C44.688,38.3268293 44.982,38.6231707 44.982,39.0182927 L44.982,39.0182927 C44.982,39.4134146 44.688,39.7097561 44.296,39.7097561 L44.296,39.7097561 L44.296,39.7097561 Z" id="Shape" fill="#FFFFFF"></path>
                </g>
            </g>
        </g>
    </g>
</svg>