<?xml version="1.0" encoding="UTF-8" standalone="no"?>
<svg width="81px" height="85px" viewBox="0 0 81 85" version="1.1" xmlns="http://www.w3.org/2000/svg" xmlns:xlink="http://www.w3.org/1999/xlink" xmlns:sketch="http://www.bohemiancoding.com/sketch/ns">
    <!-- Generator: Sketch 3.3 (11970) - http://www.bohemiancoding.com/sketch -->
    <title>Shape</title>
    <desc>Created with Sketch.</desc>
    <defs></defs>
    <g id="Page-1" stroke="none" stroke-width="1" fill="none" fill-rule="evenodd" sketch:type="MSPage">
        <g id="Zaebis-(1)" sketch:type="MSLayerGroup" fill="#009ACF">
            <path d="M0.7,84.5198687 L19.1512653,84.5198687 L19.1512653,42.5146849 L0.7,42.5146849 L0.7,84.5198687 L0.7,84.5198687 Z M9.92563265,45.9064078 C12.6142456,45.9064078 14.8283974,48.0458023 14.8283974,50.7591806 C14.8283974,53.4203786 12.6669635,55.6119534 9.92563265,55.6119534 C7.23701971,55.6119534 5.02286787,53.4725589 5.02286787,50.7591806 C5.07558577,48.0458023 7.23701971,45.9064078 9.92563265,45.9064078 L9.92563265,45.9064078 Z M79.8295692,44.0279151 C79.8295692,44.0279151 85.8921278,29.5739575 66.0174792,33.1744018 C66.0174792,33.1744018 53.7342083,35.7312391 52.3635429,32.026434 C52.3635429,32.026434 51.4146206,29.208695 55.8956422,23.8341187 C55.8956422,23.8341187 65.9120434,12.8240643 54.5776947,2.12709206 C54.5776947,2.12709206 48.8314435,-2.67350037 47.9352392,4.31866686 C47.0390349,11.3108341 48.0933929,11.7282769 44.1922682,17.1550336 C44.1922682,17.1550336 33.2269448,27.5911041 30.9600751,35.6268784 C30.9600751,35.6268784 27.9551548,44.7584401 22.8942363,44.9149811 L22.8942363,76.6406354 C24.5812091,76.5884551 30.0111529,76.3797337 35.7574041,78.3625871 C35.7574041,78.3625871 46.2482664,80.8150636 53.1015935,80.8150636 C53.1015935,80.8150636 66.9664014,81.1281458 71.2365514,77.8929639 C71.2365514,77.8929639 74.9268044,75.1795856 74.1887538,71.5791413 C74.1887538,71.5791413 73.5034211,69.2310254 75.2958297,67.8743362 C75.2958297,67.8743362 80.6203377,64.5347937 78.0371606,59.2645781 C78.0371606,59.2645781 76.6664952,56.8642818 78.8279291,54.7770677 C78.8279291,54.7770677 82.0437211,52.3245912 79.8295692,49.3503111 C79.8295692,49.4546718 78.353468,46.8978345 79.8295692,44.0279151 L79.8295692,44.0279151 Z" id="Shape" sketch:type="MSShapeGroup"></path>
        </g>
    </g>
</svg>