<?xml version="1.0" standalone="no"?>
<!DOCTYPE svg PUBLIC "-//W3C//DTD SVG 1.1//EN" "http://www.w3.org/Graphics/SVG/1.1/DTD/svg11.dtd" >
<svg xmlns="http://www.w3.org/2000/svg" xmlns:xlink="http://www.w3.org/1999/xlink" version="1.1">
<metadata></metadata>
<defs>
<font id="dejavu_sanscondensed_bold" horiz-adv-x="1282" >
<font-face units-per-em="2048" ascent="1556" descent="-492" />
<missing-glyph horiz-adv-x="641" />
<glyph horiz-adv-x="0" />
<glyph unicode="&#xd;" horiz-adv-x="682" />
<glyph unicode=" "  horiz-adv-x="641" />
<glyph unicode="&#x09;" horiz-adv-x="641" />
<glyph unicode="&#xa0;" horiz-adv-x="641" />
<glyph unicode="!" horiz-adv-x="840" d="M258 0v356h324v-356h-324zM258 920v573h324v-573l-46 -418h-232z" />
<glyph unicode="&#x22;" horiz-adv-x="960" d="M176 938v555h213v-555h-213zM572 938v555h213v-555h-213z" />
<glyph unicode="#" horiz-adv-x="1544" d="M125 383v215h295l63 274h-254v213h304l86 385h201l-86 -385h237l87 385h199l-87 -385h249v-213h-297l-62 -274h256v-215h-303l-86 -383h-199l86 383h-237l-87 -383h-200l86 383h-251zM621 598h238l63 274h-238z" />
<glyph unicode="$" d="M144 936q0 179 110 279.5t315 109.5l1 231h146v-227q90 -8 180 -25t180 -44v-254q-90 42 -180 65.5t-180 28.5v-287l28 -6q229 -40 321 -133.5t92 -276.5q0 -184 -109.5 -282.5t-331.5 -112.5v-303h-146l-1 301q-113 5 -218 28t-205 64v262q103 -59 209 -90.5t215 -35.5 v311l-30 6q-215 42 -305.5 132t-90.5 259zM429 971q0 -59 35.5 -92.5t105.5 -42.5v261q-64 -4 -102.5 -38.5t-38.5 -87.5zM716 232q78 1 117 34t39 99q0 68 -36 101.5t-120 43.5v-278z" />
<glyph unicode="%" horiz-adv-x="1846" d="M59 1114q0 189 96 297.5t263 108.5q168 0 264 -108.5t96 -297.5t-96 -298t-264 -109q-167 0 -263 109t-96 298zM284 1114q0 -115 35 -177.5t99 -62.5q65 0 100 62.5t35 177.5q0 114 -35.5 176t-99.5 62t-99 -62t-35 -176zM404 -29l840 1549h200l-841 -1549h-199z M1067 379q0 188 97 296.5t264 108.5q168 0 264 -108t96 -297t-96 -298.5t-264 -109.5q-167 0 -264 109.5t-97 298.5zM1294 379q0 -115 35 -176.5t99 -61.5q65 0 99.5 61.5t34.5 176.5q0 114 -35 175.5t-99 61.5t-99 -61.5t-35 -175.5z" />
<glyph unicode="&#x26;" horiz-adv-x="1607" d="M111 467q0 146 64 258.5t210 218.5q-38 53 -56 106t-18 111q0 163 114.5 261t304.5 98q82 0 170.5 -14.5t184.5 -43.5v-278q-84 48 -159.5 71t-147.5 23q-70 0 -108 -29.5t-38 -83.5q0 -34 22 -77.5t65 -96.5l368 -450q48 70 72.5 157t29.5 197h280q-14 -182 -64 -324 t-139 -249l264 -322h-382l-88 109q-94 -70 -198.5 -104t-221.5 -34q-237 0 -383 138.5t-146 357.5zM422 506q0 -115 76.5 -196t183.5 -81q60 0 112.5 20.5t97.5 61.5l-352 432q-58 -47 -88 -106.5t-30 -130.5z" />
<glyph unicode="'" horiz-adv-x="564" d="M176 938v555h213v-555h-213z" />
<glyph unicode="(" horiz-adv-x="842" d="M158 641q0 219 66.5 443.5t203.5 469.5h267q-115 -237 -173 -463.5t-58 -447.5t57.5 -448t173.5 -465h-267q-138 247 -204 469.5t-66 441.5z" />
<glyph unicode=")" horiz-adv-x="842" d="M148 -270q115 238 172.5 465t57.5 448t-57.5 447.5t-172.5 463.5h267q137 -245 203 -469.5t66 -443.5t-65.5 -441.5t-203.5 -469.5h-267z" />
<glyph unicode="*" horiz-adv-x="963" d="M37 870l301 174l-301 173l68 141l301 -182v344h153v-344l300 182l68 -141l-297 -173l297 -174l-68 -141l-300 184v-344h-153v344l-301 -184z" />
<glyph unicode="+" horiz-adv-x="1544" d="M195 524v236h470v524h214v-524h470v-236h-470v-524h-214v524h-470z" />
<glyph unicode="," horiz-adv-x="700" d="M98 -291l90 373v305h324v-305l-222 -373h-192z" />
<glyph unicode="-" horiz-adv-x="765" d="M100 444v291h565v-291h-565z" />
<glyph unicode="." horiz-adv-x="700" d="M188 0v387h324v-387h-324z" />
<glyph unicode="/" horiz-adv-x="673" d="M0 -190l473 1683h200l-474 -1683h-199z" />
<glyph unicode="0" d="M88 745q0 372 144 573.5t410 201.5q264 0 408 -201.5t144 -573.5q0 -371 -144 -572.5t-408 -201.5q-266 0 -410 201.5t-144 572.5zM435 748q0 -283 47.5 -399t159.5 -116q110 0 158 116t48 399q0 280 -47.5 394.5t-158.5 114.5q-112 0 -159.5 -114.5t-47.5 -394.5z" />
<glyph unicode="1" d="M208 1159v262l312 72h330v-1227h306v-266h-940v266h306v965z" />
<glyph unicode="2" d="M146 0v283l490 481q66 66 97.5 129t31.5 131q0 105 -63.5 169t-168.5 64q-81 0 -177.5 -38.5t-206.5 -114.5v328q117 43 231.5 65.5t224.5 22.5q241 0 374.5 -118t133.5 -329q0 -122 -56.5 -227.5t-238.5 -282.5l-287 -280h591v-283h-976z" />
<glyph unicode="3" d="M123 45v297q97 -54 193 -81.5t189 -27.5q138 0 211 53t73 152q0 102 -75 154.5t-222 52.5h-138v248h146q130 0 194 45.5t64 138.5q0 86 -62 133t-176 47q-84 0 -169 -21t-170 -62v282q103 32 203.5 48t197.5 16q262 0 392 -95.5t130 -287.5q0 -131 -62 -214.5 t-183 -117.5q135 -39 206 -135.5t71 -245.5q0 -222 -153 -337.5t-447 -115.5q-103 0 -207 18.5t-206 55.5z" />
<glyph unicode="4" d="M83 272v330l538 891h385v-942h192v-279h-192v-272h-327v272h-596zM299 551h380v625z" />
<glyph unicode="5" d="M142 70v303q110 -70 208.5 -105t185.5 -35q126 0 198.5 68.5t72.5 185.5q0 118 -72.5 186t-198.5 68q-74 0 -159 -21.5t-182 -66.5v840h862v-283h-585v-231q39 12 79 18.5t83 6.5q246 0 383 -136.5t137 -380.5q0 -242 -149 -379t-414 -137q-114 0 -226 24.5t-223 74.5z " />
<glyph unicode="6" d="M114 725q0 370 168 581.5t460 211.5q93 0 180.5 -16t172.5 -48v-276q-85 45 -160.5 66.5t-147.5 21.5q-155 0 -241.5 -95.5t-100.5 -283.5q59 49 128.5 73.5t150.5 24.5q207 0 333.5 -134t126.5 -351q0 -240 -141.5 -384.5t-379.5 -144.5q-262 0 -405.5 196.5 t-143.5 557.5zM485 475q0 -131 45.5 -196.5t136.5 -65.5q92 0 137.5 65.5t45.5 196.5t-45.5 196.5t-137.5 65.5q-91 0 -136.5 -65.5t-45.5 -196.5z" />
<glyph unicode="7" d="M123 1210v283h1013v-217l-524 -1276h-338l496 1210h-647z" />
<glyph unicode="8" d="M112 420q0 144 70 238.5t207 136.5q-123 41 -185 126t-62 212q0 189 127 288t373 99q244 0 370.5 -98.5t126.5 -288.5q0 -127 -62.5 -212t-184.5 -126q137 -42 206.5 -136.5t69.5 -238.5q0 -222 -132.5 -335.5t-393.5 -113.5q-262 0 -396 113.5t-134 335.5zM440 440 q0 -110 52 -168.5t150 -58.5q96 0 147.5 58.5t51.5 168.5q0 111 -51.5 169.5t-147.5 58.5q-98 0 -150 -59t-52 -169zM470 1094q0 -89 44.5 -137t127.5 -48q81 0 125 48t44 137t-44 136.5t-125 47.5q-83 0 -127.5 -48t-44.5 -136z" />
<glyph unicode="9" d="M95 987q0 241 141 386t378 145q263 0 407 -197t144 -557q0 -370 -168.5 -581.5t-461.5 -211.5q-95 0 -181.5 15.5t-169.5 46.5v276q83 -43 158.5 -64.5t149.5 -21.5q155 0 241.5 95.5t101.5 283.5q-61 -50 -130.5 -75t-150.5 -25q-206 0 -332.5 133.5t-126.5 351.5z M429 1014q0 -131 46 -196.5t137 -65.5t137 65.5t46 196.5q0 130 -46 196t-137 66t-137 -66t-46 -196z" />
<glyph unicode=":" horiz-adv-x="737" d="M206 0v387h325v-387h-325zM206 733v387h325v-387h-325z" />
<glyph unicode=";" horiz-adv-x="737" d="M116 -291l90 373v305h325v-305l-223 -373h-192zM206 733v387h325v-387h-325z" />
<glyph unicode="&#x3c;" horiz-adv-x="1544" d="M195 524v236l1154 463v-250l-867 -332l867 -330v-250z" />
<glyph unicode="=" horiz-adv-x="1544" d="M195 295v237h1154v-237h-1154zM195 752v235h1154v-235h-1154z" />
<glyph unicode="&#x3e;" horiz-adv-x="1544" d="M195 61v250l869 330l-869 332v250l1154 -463v-236z" />
<glyph unicode="?" horiz-adv-x="1069" d="M127 1124v314q109 42 199 62t174 20q219 0 334.5 -99.5t115.5 -290.5q0 -98 -35.5 -175.5t-119.5 -166.5l-58 -57q-61 -62 -80 -99.5t-19 -82.5v-45h-325v49q0 82 30 145.5t125 161.5l58 58q51 52 75 98t24 92q0 70 -43.5 109.5t-120.5 39.5q-73 0 -157.5 -33.5 t-176.5 -99.5zM313 0v356h325v-356h-325z" />
<glyph unicode="@" horiz-adv-x="1843" d="M122 543q0 182 61 347t174 290q114 124 264.5 192t312.5 68q202 0 366.5 -85.5t275.5 -246.5q67 -98 102 -212.5t35 -240.5q0 -271 -147 -421t-414 -150h-35v154q-27 -71 -87 -110.5t-140 -39.5q-155 0 -251.5 124.5t-96.5 324.5t97 325t251 125q80 0 140 -40t87 -111 v131h188v-693q112 19 175.5 119.5t63.5 257.5q0 100 -26 187.5t-79 160.5q-85 122 -213.5 188t-277.5 66q-105 0 -200.5 -30.5t-175.5 -89.5q-134 -98 -208 -253.5t-74 -336.5q0 -149 48 -279.5t139 -230.5q90 -98 206.5 -149.5t248.5 -51.5q114 0 227.5 47t193.5 127 l96 -162q-113 -97 -245.5 -148.5t-269.5 -51.5q-166 0 -314 65.5t-263 190.5t-175 289.5t-60 353.5zM748 539q0 -123 47 -194t128 -71t128.5 71.5t47.5 193.5q0 121 -48 191.5t-129 70.5q-80 0 -127 -70.5t-47 -191.5z" />
<glyph unicode="A" horiz-adv-x="1426" d="M9 0l498 1493h413l498 -1493h-349l-84 272h-542l-86 -272h-348zM529 549h368l-183 594z" />
<glyph unicode="B" horiz-adv-x="1404" d="M169 0v1493h520q280 0 405.5 -94t125.5 -301q0 -109 -45.5 -185.5t-133.5 -113.5q112 -36 173 -133t61 -238q0 -216 -131.5 -322t-399.5 -106h-575zM516 262h203q105 0 157.5 49t52.5 148q0 97 -52.5 145.5t-157.5 48.5h-203v-391zM516 915h191q82 0 124.5 40t42.5 118 q0 77 -42.5 117.5t-124.5 40.5h-191v-316z" />
<glyph unicode="C" horiz-adv-x="1352" d="M92 745q0 358 196 566.5t532 208.5q112 0 215.5 -28t199.5 -83v-309q-97 73 -190.5 107t-196.5 34q-186 0 -292 -132t-106 -364q0 -231 106 -363t292 -132q103 0 196.5 34t190.5 107v-309q-96 -55 -199.5 -83t-215.5 -28q-336 0 -532 208.5t-196 565.5z" />
<glyph unicode="D" horiz-adv-x="1530" d="M169 0v1493h366q306 0 455.5 -48.5t256.5 -164.5q95 -101 141 -233t46 -299q0 -169 -46 -301.5t-141 -233.5q-108 -116 -259 -164.5t-453 -48.5h-366zM516 291h124q212 0 324 117t112 340q0 222 -111.5 338t-324.5 116h-124v-911z" />
<glyph unicode="E" horiz-adv-x="1259" d="M169 0v1493h935v-291h-588v-278h553v-291h-553v-342h608v-291h-955z" />
<glyph unicode="F" horiz-adv-x="1259" d="M169 0v1493h935v-291h-588v-278h553v-291h-553v-633h-347z" />
<glyph unicode="G" horiz-adv-x="1512" d="M92 745q0 361 199.5 568t547.5 207q134 0 257 -28t232 -83v-309q-113 71 -224 106t-223 35q-207 0 -319 -128.5t-112 -367.5q0 -237 108 -366t307 -129q54 0 100.5 7.5t82.5 23.5v290h-211v258h540v-718q-130 -70 -269.5 -105t-287.5 -35q-336 0 -532 208.5t-196 565.5z " />
<glyph unicode="H" horiz-adv-x="1542" d="M169 0v1493h347v-569h511v569h346v-1493h-346v633h-511v-633h-347z" />
<glyph unicode="I" horiz-adv-x="685" d="M169 0v1493h347v-1493h-347z" />
<glyph unicode="J" horiz-adv-x="685" d="M-104 -119h54q108 0 163.5 67t55.5 197v1348h347v-1348q0 -279 -136.5 -417t-412.5 -138h-71v291z" />
<glyph unicode="K" horiz-adv-x="1428" d="M169 0v1493h347v-545l499 545h403l-648 -707l714 -786h-434l-534 588v-588h-347z" />
<glyph unicode="L" horiz-adv-x="1174" d="M169 0v1493h347v-1202h608v-291h-955z" />
<glyph unicode="M" horiz-adv-x="1834" d="M169 0v1493h441l306 -799l308 799h440v-1493h-328v1092l-309 -805h-220l-309 805v-1092h-329z" />
<glyph unicode="N" horiz-adv-x="1542" d="M169 0v1493h387l489 -1024v1024h328v-1493h-387l-488 1024v-1024h-329z" />
<glyph unicode="O" horiz-adv-x="1566" d="M92 745q0 363 184 569t507 206q324 0 507.5 -206t183.5 -569q0 -362 -183.5 -568t-507.5 -206q-323 0 -507 206t-184 568zM450 745q0 -235 87.5 -365t245.5 -130q159 0 246.5 130t87.5 365q0 236 -87.5 366t-246.5 130q-158 0 -245.5 -130t-87.5 -366z" />
<glyph unicode="P" horiz-adv-x="1350" d="M169 0v1493h575q257 0 394 -126.5t137 -360.5q0 -235 -137 -361.5t-394 -126.5h-228v-518h-347zM516 797h191q101 0 156 54.5t55 154.5t-55 154t-156 54h-191v-417z" />
<glyph unicode="Q" horiz-adv-x="1566" d="M92 745q0 363 184 569t507 206q327 0 509 -204t182 -571q0 -252 -96.5 -434t-278.5 -274l271 -336h-330l-220 272h-27q-332 0 -516.5 204t-184.5 568zM450 745q0 -240 85.5 -367.5t247.5 -127.5q159 0 246.5 130t87.5 365q0 236 -87.5 366t-246.5 130q-158 0 -245.5 -130 t-87.5 -366z" />
<glyph unicode="R" horiz-adv-x="1419" d="M169 0v1493h529q266 0 389.5 -99t123.5 -313q0 -148 -64 -243t-194 -140q71 -18 127.5 -81.5t113.5 -192.5l188 -424h-369l-163 371q-50 112 -101 153t-135 41h-98v-565h-347zM516 831h146q108 0 155.5 45t47.5 148q0 102 -47.5 146t-155.5 44h-146v-383z" />
<glyph unicode="S" horiz-adv-x="1327" d="M132 1057q0 223 130 343t372 120q111 0 228 -18.5t242 -55.5v-316q-110 55 -215.5 83t-199.5 28q-124 0 -183.5 -38t-59.5 -118q0 -60 40 -93.5t146 -57.5l147 -33q225 -50 319 -152t94 -290q0 -247 -131.5 -367.5t-402.5 -120.5q-128 0 -256.5 27t-257.5 80v325 q129 -76 249 -114.5t232 -38.5q113 0 173.5 42t60.5 120q0 70 -41 108t-164 68l-134 33q-201 48 -294.5 153t-93.5 283z" />
<glyph unicode="T" horiz-adv-x="1257" d="M9 1202v291h1238v-291h-445v-1202h-347v1202h-446z" />
<glyph unicode="U" horiz-adv-x="1496" d="M169 598v895h347v-895q0 -185 54.5 -264.5t177.5 -79.5q124 0 178.5 79.5t54.5 264.5v895h347v-895q0 -317 -143.5 -472t-436.5 -155t-436 155t-143 472z" />
<glyph unicode="V" horiz-adv-x="1426" d="M9 1493h348l357 -1102l355 1102h349l-498 -1493h-413z" />
<glyph unicode="W" horiz-adv-x="2033" d="M55 1493h332l232 -1085l231 1085h334l230 -1085l232 1085h330l-317 -1493h-400l-244 1135l-241 -1135h-400z" />
<glyph unicode="X" horiz-adv-x="1421" d="M35 0l466 762l-448 731h362l294 -481l294 481h363l-448 -731l466 -762h-361l-314 510l-311 -510h-363z" />
<glyph unicode="Y" horiz-adv-x="1334" d="M-18 1493h379l306 -532l306 532h380l-512 -864v-629h-347v629z" />
<glyph unicode="Z" horiz-adv-x="1336" d="M83 0v233l721 969h-700v291h1129v-233l-721 -969h742v-291h-1171z" />
<glyph unicode="[" horiz-adv-x="842" d="M158 -270v1826h559v-225h-253v-1376h253v-225h-559z" />
<glyph unicode="\" horiz-adv-x="673" d="M0 1493h199l474 -1683h-200z" />
<glyph unicode="]" horiz-adv-x="842" d="M125 -45h253v1376h-253v225h559v-1826h-559v225z" />
<glyph unicode="^" horiz-adv-x="1544" d="M186 936l476 557h221l475 -557h-217l-369 301l-368 -301h-218z" />
<glyph unicode="_" horiz-adv-x="921" d="M0 -293h922v-190h-922v190z" />
<glyph unicode="`" horiz-adv-x="921" d="M85 1638h254l254 -376h-176z" />
<glyph unicode="a" horiz-adv-x="1243" d="M79 336q0 197 122 289t383 92h190v28q0 85 -60.5 124.5t-187.5 39.5q-104 0 -193 -23t-166 -69v273q104 28 208.5 42.5t208.5 14.5q273 0 394 -119.5t121 -388.5v-639h-325v166q-65 -102 -146 -148.5t-197 -46.5q-157 0 -254.5 101.5t-97.5 263.5zM404 354 q0 -68 41 -106.5t114 -38.5q91 0 153 72.5t62 181.5v41h-167q-101 0 -152 -38t-51 -112z" />
<glyph unicode="b" horiz-adv-x="1319" d="M155 0v1556h322v-600q67 98 148 144.5t186 46.5q186 0 306 -164.5t120 -423.5t-120 -423.5t-306 -164.5q-105 0 -186 46.5t-148 144.5v-162h-322zM477 559q0 -159 55.5 -243.5t158.5 -84.5q104 0 158.5 84t54.5 244t-54.5 244t-158.5 84q-103 0 -158.5 -84.5 t-55.5 -243.5z" />
<glyph unicode="c" horiz-adv-x="1092" d="M79 559q0 277 154 432.5t427 155.5q79 0 156 -15.5t153 -46.5v-292q-65 50 -131.5 74t-137.5 24q-135 0 -210 -87.5t-75 -244.5t75 -244.5t210 -87.5q76 0 144 25t125 74v-293q-75 -31 -153 -46.5t-156 -15.5q-273 0 -427 155.5t-154 432.5z" />
<glyph unicode="d" horiz-adv-x="1319" d="M83 559q0 259 119.5 423.5t305.5 164.5q105 0 185.5 -46.5t147.5 -144.5v600h324v-1556h-324v162q-67 -99 -147 -145t-186 -46q-186 0 -305.5 164.5t-119.5 423.5zM417 559q0 -160 54.5 -244t156.5 -84q104 0 158.5 84t54.5 244t-54.5 244t-158.5 84q-102 0 -156.5 -84 t-54.5 -244z" />
<glyph unicode="e" horiz-adv-x="1250" d="M79 559q0 274 149 431t410 157q238 0 380.5 -159t142.5 -425v-102h-753q11 -126 81.5 -189t196.5 -63q102 0 208.5 33.5t218.5 101.5v-276q-114 -48 -228.5 -72.5t-228.5 -24.5q-274 0 -425.5 154.5t-151.5 433.5zM411 682h419q0 102 -53.5 164.5t-140.5 62.5 q-93 0 -151.5 -58.5t-73.5 -168.5z" />
<glyph unicode="f" horiz-adv-x="801" d="M35 864v256h160v78q0 183 92 270.5t285 87.5h246v-235h-178q-68 0 -95 -27.5t-27 -95.5v-78h275v-256h-275v-864h-323v864h-160z" />
<glyph unicode="g" horiz-adv-x="1319" d="M83 573q0 251 120.5 411.5t304.5 160.5q106 0 186 -46t147 -145v166h324v-1007q0 -270 -153.5 -412.5t-445.5 -142.5q-94 0 -182.5 16t-177.5 49v279q85 -54 166 -80.5t163 -26.5q158 0 232 77t74 241v77q-67 -98 -147 -144t-186 -46q-184 0 -304.5 161.5t-120.5 411.5z M417 573q0 -154 54 -233.5t157 -79.5q101 0 157 82t56 231q0 150 -56 232t-157 82q-100 0 -155.5 -82t-55.5 -232z" />
<glyph unicode="h" horiz-adv-x="1312" d="M155 0v1556h322v-600q73 98 155 144.5t181 46.5q174 0 264.5 -119t90.5 -346v-682h-324v111v409q0 147 -6 202t-20 81q-19 35 -51.5 54.5t-73.5 19.5q-101 0 -158.5 -86.5t-57.5 -239.5v-551h-322z" />
<glyph unicode="i" horiz-adv-x="631" d="M155 0v1120h322v-1120h-322zM155 1264v292h322v-292h-322z" />
<glyph unicode="j" horiz-adv-x="631" d="M-61 -207h56q91 0 125.5 46t34.5 181v1100h322v-1100q0 -225 -97 -343.5t-282 -118.5h-159v235zM155 1264v292h322v-292h-322z" />
<glyph unicode="k" horiz-adv-x="1225" d="M155 0v1556h322v-847l371 411h374l-492 -514l531 -606h-391l-393 467v-467h-322z" />
<glyph unicode="l" horiz-adv-x="631" d="M155 0v1556h322v-1556h-322z" />
<glyph unicode="m" horiz-adv-x="1920" d="M153 0v1120h324v-164q59 95 136 143t170 48q104 0 184.5 -56t121.5 -157q61 104 145 158.5t185 54.5q174 0 265 -119t91 -346v-682h-324v584q1 13 1.5 27t0.5 40q0 119 -31.5 172.5t-102.5 53.5q-91 0 -141 -84t-52 -243v-550h-324v584q0 186 -29 239.5t-103 53.5 q-92 0 -142.5 -84.5t-50.5 -241.5v-551h-324z" />
<glyph unicode="n" horiz-adv-x="1312" d="M155 0v1120h322v-164q73 98 155 144.5t181 46.5q174 0 264.5 -119t90.5 -346v-682h-324v111v411q0 145 -6 200t-20 81q-19 35 -51.5 54.5t-73.5 19.5q-101 0 -158.5 -86.5t-57.5 -239.5v-551h-322z" />
<glyph unicode="o" horiz-adv-x="1266" d="M79 559q0 276 147.5 432t407.5 156q261 0 407 -156t146 -432t-146 -432t-407 -156q-260 0 -407.5 156t-147.5 432zM415 559q0 -161 56 -246.5t163 -85.5q106 0 161.5 85.5t55.5 246.5t-55.5 246.5t-161.5 85.5q-107 0 -163 -85.5t-56 -246.5z" />
<glyph unicode="p" horiz-adv-x="1319" d="M155 -426v1546h322v-164q67 98 148 144.5t186 46.5q186 0 306 -164.5t120 -423.5t-120 -423.5t-306 -164.5q-105 0 -186 46.5t-148 144.5v-588h-322zM477 559q0 -159 55.5 -243.5t158.5 -84.5q104 0 158.5 84t54.5 244t-54.5 244t-158.5 84q-103 0 -158.5 -84.5 t-55.5 -243.5z" />
<glyph unicode="q" horiz-adv-x="1319" d="M83 559q0 259 119.5 422.5t305.5 163.5q106 0 186 -46t147 -145v166h324v-1546h-324v588q-67 -99 -147 -145t-186 -46q-186 0 -305.5 164.5t-119.5 423.5zM417 559q0 -160 54.5 -244t156.5 -84q104 0 158.5 84t54.5 244t-54.5 244t-158.5 84q-102 0 -156.5 -84 t-54.5 -244z" />
<glyph unicode="r" horiz-adv-x="909" d="M155 0v1120h322v-184q62 110 142.5 160.5t193.5 50.5q16 0 35 -1.5t55 -6.5l1 -324q-43 22 -84.5 32.5t-84.5 10.5q-124 0 -191 -88.5t-67 -253.5v-516h-322z" />
<glyph unicode="s" horiz-adv-x="1097" d="M95 797q0 178 110 264t337 86q89 0 187 -15t213 -47v-272q-103 48 -199.5 72t-181.5 24q-92 0 -136.5 -25.5t-44.5 -78.5q0 -43 33.5 -66t121.5 -34l56 -9q248 -35 333.5 -115t85.5 -251q0 -179 -119 -269t-355 -90q-100 0 -206.5 17.5t-218.5 52.5v272q96 -52 197.5 -78 t205.5 -26q94 0 142 29t48 86q0 48 -33 71.5t-131 36.5l-57 8q-215 30 -301.5 111t-86.5 246z" />
<glyph unicode="t" horiz-adv-x="881" d="M24 864v256h160v318h323v-318h332v-256h-332v-475q0 -78 27.5 -105.5t110.5 -27.5h166v-256h-276q-191 0 -271 88.5t-80 300.5v475h-160z" />
<glyph unicode="u" horiz-adv-x="1312" d="M144 436v684h324v-112q0 -91 -1 -228.5t-1 -183.5q0 -135 6.5 -194.5t21.5 -86.5q20 -35 52 -54t73 -19q101 0 158.5 86t57.5 239v553h322v-1120h-322v162q-73 -98 -154.5 -144.5t-179.5 -46.5q-174 0 -265.5 119t-91.5 346z" />
<glyph unicode="v" horiz-adv-x="1201" d="M28 1120h322l251 -774l250 774h323l-396 -1120h-354z" />
<glyph unicode="w" horiz-adv-x="1702" d="M65 1120h313l169 -772l170 772h269l170 -764l170 764h313l-266 -1120h-351l-171 770l-169 -770h-352z" />
<glyph unicode="x" horiz-adv-x="1188" d="M28 0l382 573l-364 547h341l206 -332l209 332h341l-364 -545l382 -575h-341l-227 354l-224 -354h-341z" />
<glyph unicode="y" horiz-adv-x="1201" d="M22 1120h323l271 -760l230 760h322l-424 -1226q-64 -187 -149 -261.5t-224 -74.5h-187v235h101q82 0 119.5 29t58.5 104l9 31z" />
<glyph unicode="z" horiz-adv-x="1072" d="M83 0v250l531 614h-509v256h880v-250l-531 -614h531v-256h-902z" />
<glyph unicode="{" horiz-adv-x="1312" d="M230 494v223h55q128 0 176.5 58t48.5 208v205q0 193 90 280.5t286 87.5h196v-225h-62q-127 0 -165.5 -43.5t-38.5 -185.5v-166q0 -157 -40.5 -228t-139.5 -96q100 -27 140 -98t40 -227v-166q0 -143 38.5 -186.5t165.5 -43.5h62v-225h-196q-196 0 -286 88t-90 281v192 q0 150 -48.5 208.5t-176.5 58.5h-55z" />
<glyph unicode="|" horiz-adv-x="673" d="M234 -483v2048h204v-2048h-204z" />
<glyph unicode="}" horiz-adv-x="1312" d="M230 -109h63q126 0 164.5 43.5t38.5 186.5v166q0 156 40.5 227t140.5 98q-100 25 -140.5 96t-40.5 228v166q0 142 -38.5 185.5t-164.5 43.5h-63v225h196q196 0 286 -87.5t90 -280.5v-205q0 -150 48.5 -208t176.5 -58h55v-223h-55q-128 0 -176.5 -58.5t-48.5 -208.5v-192 q0 -193 -90 -281t-286 -88h-196v225z" />
<glyph unicode="~" horiz-adv-x="1544" d="M195 434v244q97 80 177 114.5t166 34.5q96 0 225 -58q14 -6 20 -9t20 -9q139 -61 224 -61q77 0 153 37.5t169 122.5v-244q-95 -80 -175.5 -114.5t-167.5 -34.5q-96 0 -225 58q-12 6 -20 9q-6 3 -19 9q-140 61 -224 61q-80 0 -157 -38.5t-166 -121.5z" />
<glyph unicode="&#xa2;" d="M157 575q0 244 121.5 389.5t353.5 180.5v287h146v-287q64 -3 130.5 -17.5t136.5 -42.5v-292q-67 48 -131 73t-123 25h-13v-663q80 1 148 26t119 72v-293q-75 -30 -140.5 -46t-117.5 -16h-9v-284h-146v288q-236 40 -355.5 191t-119.5 409zM492 559q0 -109 35 -183 t105 -116v598q-70 -44 -105 -117.5t-35 -181.5z" />
<glyph unicode="&#xa3;" d="M112 0v266h205v326h-175v239h175v170q0 271 114 395t362 124q83 0 164.5 -13.5t161.5 -40.5v-286q-63 39 -130 58t-136 19q-106 0 -157 -62.5t-51 -193.5v-170h336v-239h-336v-326h485v-266h-1018z" />
<glyph unicode="&#xa5;" d="M22 1493h360l260 -461l259 461h360l-303 -539h264v-192h-365l-44 -86v-66h409v-194h-409v-416h-343v416h-409v194h409v66l-44 86h-365v192h263z" />
<glyph unicode="&#xa8;" horiz-adv-x="921" d="M177 1339v246h212v-246h-212zM533 1339v246h211v-246h-211z" />
<glyph unicode="&#xa9;" horiz-adv-x="1843" d="M255 741q0 154 48.5 285t146.5 240t216.5 164t255.5 55q136 0 254.5 -55t216.5 -164t146.5 -240t48.5 -285q0 -152 -48.5 -282.5t-146.5 -239.5t-216.5 -164t-254.5 -55q-137 0 -255.5 55t-216.5 164t-146.5 239.5t-48.5 282.5zM391 741q0 -121 39 -224.5t117 -190.5 q78 -86 172 -129t203 -43q110 0 203 42.5t171 129.5t117.5 190.5t39.5 224.5q0 122 -39.5 225.5t-117.5 190.5q-79 88 -172.5 131t-201.5 43q-109 0 -202.5 -43.5t-172.5 -130.5q-78 -87 -117 -190.5t-39 -225.5zM540 741q0 195 114.5 311.5t303.5 116.5q63 0 120.5 -10.5 t112.5 -32.5v-215q-52 37 -101.5 54.5t-101.5 17.5q-102 0 -159 -64t-57 -178q0 -115 57 -178t159 -63q58 0 109.5 18t93.5 53v-213q-59 -22 -118 -33.5t-115 -11.5q-189 0 -303.5 117t-114.5 311z" />
<glyph unicode="&#xab;" horiz-adv-x="1190" d="M142 506v186l444 371v-242l-264 -221l264 -221v-242zM573 506v186l444 371v-242l-263 -221l263 -221v-242z" />
<glyph unicode="&#xad;" horiz-adv-x="765" d="M100 444v291h565v-291h-565z" />
<glyph unicode="&#xae;" horiz-adv-x="1843" d="M255 741q0 154 48.5 285t146.5 240t216.5 164t255.5 55q136 0 254.5 -55t216.5 -164t146.5 -240t48.5 -285q0 -152 -48.5 -282.5t-146.5 -239.5t-216.5 -164t-254.5 -55q-137 0 -255.5 55t-216.5 164t-146.5 239.5t-48.5 282.5zM391 741q0 -121 39 -224.5t117 -190.5 q78 -86 172 -129t203 -43q110 0 203 42.5t171 129.5t117.5 190.5t39.5 224.5q0 122 -39.5 225.5t-117.5 190.5q-79 88 -172.5 131t-201.5 43q-109 0 -202.5 -43.5t-172.5 -130.5q-78 -87 -117 -190.5t-39 -225.5zM647 338v836h257q158 0 236.5 -59.5t78.5 -180.5 q0 -86 -47.5 -142t-133.5 -73q37 -22 68.5 -62t58.5 -98l99 -221h-206l-96 213q-34 78 -60 110.5t-52 32.5h-11v-356h-192zM839 829h31q70 0 106 26.5t36 78.5t-35 77t-107 25h-31v-207z" />
<glyph unicode="&#xb4;" horiz-adv-x="921" d="M328 1262l254 376h255l-332 -376h-177z" />
<glyph unicode="&#xb8;" horiz-adv-x="921" d="M236 -223q45 -16 82.5 -23.5t66.5 -7.5q52 0 81.5 23t29.5 63q0 26 -19.5 67t-59.5 101h125q52 -62 77 -115t25 -100q0 -95 -55.5 -140.5t-170.5 -45.5q-43 0 -88.5 6.5t-92.5 19.5z" />
<glyph unicode="&#xbb;" horiz-adv-x="1190" d="M174 137v242l262 221l-262 221v242l442 -371v-186zM605 137v242l263 221l-263 221v242l443 -371v-186z" />
<glyph unicode="&#x2c6;" horiz-adv-x="921" d="M122 1262l230 376h218l230 -376h-160l-179 225l-179 -225h-160z" />
<glyph unicode="&#x2da;" horiz-adv-x="921" d="M204 1534q0 118 75.5 201.5t181.5 83.5t181 -83.5t75 -201.5t-75 -201.5t-181 -83.5t-181.5 83.5t-75.5 201.5zM343 1534q0 -55 34.5 -93t83.5 -38t83.5 38.5t34.5 92.5t-35 92.5t-83 38.5q-50 0 -84 -38.5t-34 -92.5z" />
<glyph unicode="&#x2dc;" horiz-adv-x="921" d="M148 1309q0 136 46 210t130 74q32 0 65 -13.5t70 -43.5l55 -43q20 -15 36.5 -23t29.5 -8q33 0 51 32t18 89v8h125q0 -136 -46.5 -210t-129.5 -74q-33 0 -63 12t-72 45l-50 37l-9 6q-42 31 -65 31q-32 0 -49 -31t-17 -90v-8h-125z" />
<glyph unicode="&#x400;" horiz-adv-x="1259" d="M169 0v1493h935v-291h-588v-278h553v-291h-553v-342h608v-291h-955zM441 1899h254l179 -264h-177z" />
<glyph unicode="&#x401;" horiz-adv-x="1259" d="M169 0v1493h935v-291h-588v-278h553v-291h-553v-342h608v-291h-955zM334 1653v246h211v-246h-211zM689 1653v246h212v-246h-212z" />
<glyph unicode="&#x402;" horiz-adv-x="1619" d="M9 1202v291h1082v-291h-446v-278h470q173 0 265 -119q91 -117 91 -346v-314q0 -279 -137 -417q-136 -138 -412 -138h-71v291h54q108 0 164 67q55 67 55 197v131q0 147 -6 202t-20 81q-19 35 -51 55q-33 19 -74 19h-328v-633h-346v1202h-290z" />
<glyph unicode="&#x403;" horiz-adv-x="1174" d="M169 0v1493h955v-291h-608v-1202h-347zM495 1636l178 264h255l-257 -264h-176z" />
<glyph unicode="&#x404;" horiz-adv-x="1352" d="M92 746q0 357 196 565.5t532 208.5q222 0 415 -111v-309q-187 141 -380 141q-194 0 -285 -115t-106 -235h605v-291h-605q15 -120 106 -235t285 -115q193 0 380 141v-309q-193 -111 -415 -111q-336 0 -532 208.5t-196 566.5z" />
<glyph unicode="&#x405;" horiz-adv-x="1327" d="M132 1057q0 223 130 343t372 120q111 0 228 -18.5t242 -55.5v-316q-110 55 -215.5 83t-199.5 28q-124 0 -183.5 -38t-59.5 -118q0 -60 40 -93.5t146 -57.5l147 -33q225 -50 319 -152t94 -290q0 -247 -131.5 -367.5t-402.5 -120.5q-128 0 -256.5 27t-257.5 80v325 q129 -76 249 -114.5t232 -38.5q113 0 173.5 42t60.5 120q0 70 -41 108t-164 68l-134 33q-201 48 -294.5 153t-93.5 283z" />
<glyph unicode="&#x406;" horiz-adv-x="685" d="M169 0v1493h347v-1493h-347z" />
<glyph unicode="&#x407;" horiz-adv-x="685" d="M59 1653v246h211v-246h-211zM169 0v1493h347v-1493h-347zM414 1653v246h212v-246h-212z" />
<glyph unicode="&#x408;" horiz-adv-x="685" d="M-104 -119h54q108 0 163.5 67t55.5 197v1348h347v-1348q0 -279 -136.5 -417t-412.5 -138h-71v291z" />
<glyph unicode="&#x409;" horiz-adv-x="2127" d="M85 0v291q230 47 275 195t45 725v282h957v-569h138q255 0 393 -111.5t138 -351.5q0 -238 -138 -349.5t-393 -111.5h-485v1203h-263v-92q0 -549 -87.5 -802t-579.5 -309zM1362 262h113q109 0 159.5 47t50.5 140q0 91 -50 137.5t-160 46.5h-113v-371z" />
<glyph unicode="&#x40a;" horiz-adv-x="2082" d="M169 0v1493h347v-569h421v569h346v-569h139q255 0 393 -111.5t138 -351.5q0 -238 -138 -349.5t-393 -111.5h-485v633h-421v-633h-347zM1283 262h114q109 0 159 47t50 140q0 91 -49.5 137.5t-159.5 46.5h-114v-371z" />
<glyph unicode="&#x40b;" horiz-adv-x="1619" d="M9 1202v291h1082v-291h-446v-278h470q173 0 265 -119q91 -117 91 -346v-459h-347v111v165q0 147 -6 202t-20 81q-19 35 -51 55q-33 19 -74 19h-328v-633h-346v1202h-290z" />
<glyph unicode="&#x40c;" horiz-adv-x="1506" d="M169 0v1493h347v-616l542 616h392l-534 -605l564 -888h-382l-404 636l-178 -202v-434h-347zM610 1636l178 264h255l-257 -264h-176z" />
<glyph unicode="&#x40d;" horiz-adv-x="1542" d="M169 0v1493h329v-1024l488 1024h387v-1493h-328v1024l-489 -1024h-387zM492 1899h254l179 -264h-177z" />
<glyph unicode="&#x40e;" horiz-adv-x="1421" d="M53 1493h362l298 -680l290 680h363l-528 -1245q-36 -85 -89 -139q-108 -109 -414 -109h-63v291h95q126 0 156 69q7 15 13 30zM414 1899h129q18 -61 61.5 -91t111.5 -30q69 0 112 30t62 91h129q-15 -129 -92.5 -196.5t-210.5 -67.5t-210.5 67.5t-91.5 196.5z" />
<glyph unicode="&#x40f;" horiz-adv-x="1542" d="M169 0v1493h347v-1202h511v1202h346v-1493h-470v-321h-263v321h-471z" />
<glyph unicode="&#x410;" horiz-adv-x="1426" d="M9 0l498 1493h413l498 -1493h-349l-84 272h-542l-86 -272h-348zM529 549h368l-183 594z" />
<glyph unicode="&#x411;" horiz-adv-x="1404" d="M169 0v1493h1016v-291h-669v-278h228q255 0 400 -117q131 -106 131 -346q0 -238 -131 -344q-145 -117 -400 -117h-575zM516 262h203q109 0 158 45q52 49 52 142q0 91 -52 139q-48 45 -158 45h-203v-371z" />
<glyph unicode="&#x412;" horiz-adv-x="1404" d="M169 0v1493h520q280 0 405.5 -94t125.5 -301q0 -109 -45.5 -185.5t-133.5 -113.5q112 -36 173 -133t61 -238q0 -216 -131.5 -322t-399.5 -106h-575zM516 262h203q105 0 157.5 49t52.5 148q0 97 -52.5 145.5t-157.5 48.5h-203v-391zM516 915h191q82 0 124.5 40t42.5 118 q0 77 -42.5 117.5t-124.5 40.5h-191v-316z" />
<glyph unicode="&#x413;" horiz-adv-x="1174" d="M169 0v1493h955v-291h-608v-1202h-347z" />
<glyph unicode="&#x414;" horiz-adv-x="1641" d="M111 291h101q93 69 119 170.5t26 749.5v282h984v-1202h190v-612h-262v321h-896v-321h-262v612zM620 291h374v911h-290v-91q0 -640 -84 -820z" />
<glyph unicode="&#x415;" horiz-adv-x="1259" d="M169 0v1493h935v-291h-588v-278h553v-291h-553v-342h608v-291h-955z" />
<glyph unicode="&#x416;" horiz-adv-x="2256" d="M27 0l550 895l-491 598h363l506 -616v616h346v-616l506 616h364l-492 -598l550 -895h-381l-386 629l-161 -195v-434h-346v434l-160 195l-386 -629h-382z" />
<glyph unicode="&#x417;" horiz-adv-x="1309" d="M122 45v297q97 -54 192.5 -81.5t233.5 -27.5q147 0 220.5 53t73.5 152q0 102 -75.5 154.5t-248.5 52.5h-166v248h173q157 0 221 45.5t64 138.5q0 86 -62 133t-185 47q-127 0 -238 -24.5t-173 -58.5v282q60 23 193 43.5t217 20.5q295 0 444.5 -95.5t149.5 -287.5 q0 -131 -62 -214.5t-183 -117.5q136 -39 206.5 -135.5t70.5 -245.5q0 -222 -153 -337.5t-473 -115.5q-133 0 -238 19t-202 55z" />
<glyph unicode="&#x418;" horiz-adv-x="1542" d="M169 0v1493h329v-1024l488 1024h387v-1493h-328v1024l-489 -1024h-387z" />
<glyph unicode="&#x419;" horiz-adv-x="1542" d="M169 0v1493h329v-1024l488 1024h387v-1493h-328v1024l-489 -1024h-387zM439 1899h129q18 -61 61.5 -91t111.5 -30q69 0 112 30t62 91h129q-15 -129 -92.5 -196.5t-210.5 -67.5t-210.5 67.5t-91.5 196.5z" />
<glyph unicode="&#x41a;" horiz-adv-x="1506" d="M169 0v1493h347v-616l542 616h392l-534 -605l564 -888h-382l-404 636l-178 -202v-434h-347z" />
<glyph unicode="&#x41b;" horiz-adv-x="1530" d="M85 0v291q228 28 274 193.5t46 726.5v282h957v-1493h-347v1202h-263v-91q0 -548 -87.5 -801.5t-579.5 -309.5z" />
<glyph unicode="&#x41c;" horiz-adv-x="1834" d="M169 0v1493h441l306 -799l308 799h440v-1493h-328v1092l-309 -805h-220l-309 805v-1092h-329z" />
<glyph unicode="&#x41d;" horiz-adv-x="1542" d="M169 0v1493h347v-569h511v569h346v-1493h-346v633h-511v-633h-347z" />
<glyph unicode="&#x41e;" horiz-adv-x="1566" d="M92 745q0 363 184 569t507 206q324 0 507.5 -206t183.5 -569q0 -362 -183.5 -568t-507.5 -206q-323 0 -507 206t-184 568zM450 745q0 -235 87.5 -365t245.5 -130q159 0 246.5 130t87.5 365q0 236 -87.5 366t-246.5 130q-158 0 -245.5 -130t-87.5 -366z" />
<glyph unicode="&#x41f;" horiz-adv-x="1542" d="M169 0v1493h1204v-1493h-346v1202h-511v-1202h-347z" />
<glyph unicode="&#x420;" horiz-adv-x="1350" d="M169 0v1493h575q257 0 394 -126.5t137 -360.5q0 -235 -137 -361.5t-394 -126.5h-228v-518h-347zM516 797h191q101 0 156 54.5t55 154.5t-55 154t-156 54h-191v-417z" />
<glyph unicode="&#x421;" horiz-adv-x="1352" d="M92 745q0 358 196 566.5t532 208.5q112 0 215.5 -28t199.5 -83v-309q-97 73 -190.5 107t-196.5 34q-186 0 -292 -132t-106 -364q0 -231 106 -363t292 -132q103 0 196.5 34t190.5 107v-309q-96 -55 -199.5 -83t-215.5 -28q-336 0 -532 208.5t-196 565.5z" />
<glyph unicode="&#x422;" horiz-adv-x="1257" d="M9 1202v291h1238v-291h-445v-1202h-347v1202h-446z" />
<glyph unicode="&#x423;" horiz-adv-x="1421" d="M53 1493h362l298 -680l290 680h363l-528 -1245q-36 -85 -89 -139q-108 -109 -414 -109h-63v291h95q126 0 156 69q7 15 13 30z" />
<glyph unicode="&#x424;" horiz-adv-x="1827" d="M92 761q0 280 159 417t490 167v148h346v-148q331 -30 489.5 -167t158.5 -417t-158.5 -416.5t-489.5 -166.5v-178h-346v178q-331 30 -490 166.5t-159 416.5zM450 761q0 -150 70 -217t221 -81v597q-151 -14 -221 -81.5t-70 -217.5zM1087 463q151 14 221 81t70 217 t-70 217.5t-221 81.5v-597z" />
<glyph unicode="&#x425;" horiz-adv-x="1421" d="M35 0l466 762l-448 731h362l294 -481l294 481h363l-448 -731l466 -762h-361l-314 510l-311 -510h-363z" />
<glyph unicode="&#x426;" horiz-adv-x="1710" d="M169 0v1493h347v-1202h511v1202h346v-1202h226v-612h-262v321h-1168z" />
<glyph unicode="&#x427;" horiz-adv-x="1489" d="M148 1035v458h347v-275q0 -236 33.5 -296.5t117.5 -60.5h328v632h346v-1493h-346v570h-470q-171 0 -263.5 117t-92.5 348z" />
<glyph unicode="&#x428;" horiz-adv-x="2277" d="M169 0v1493h347v-1202h449v1202h346v-1202h449v1202h347v-1493h-1938z" />
<glyph unicode="&#x429;" horiz-adv-x="2443" d="M169 0v1493h347v-1202h449v1202h346v-1202h449v1202h347v-1202h226v-612h-262v321h-1902z" />
<glyph unicode="&#x42a;" horiz-adv-x="1731" d="M90 1202v291h790v-569h229q255 0 393 -111.5t138 -351.5q0 -238 -138 -349.5t-393 -111.5h-575v1202h-444zM880 262h204q108 0 158.5 47t50.5 140q0 91 -50 137.5t-159 46.5h-204v-371z" />
<glyph unicode="&#x42b;" horiz-adv-x="1909" d="M169 0v1493h347v-569h228q255 0 400 -117q131 -106 131 -346q0 -238 -131 -344q-145 -117 -400 -117h-575zM516 262h203q109 0 158 45q52 49 52 142q0 91 -52 139q-48 45 -158 45h-203v-371zM1394 0v1493h347v-1493h-347z" />
<glyph unicode="&#x42c;" horiz-adv-x="1404" d="M169 0v1493h347v-569h228q255 0 400 -117q131 -106 131 -346q0 -238 -131 -344q-145 -117 -400 -117h-575zM516 262h203q109 0 158 45q52 49 52 142q0 91 -52 139q-48 45 -158 45h-203v-371z" />
<glyph unicode="&#x42d;" horiz-adv-x="1352" d="M118 82v309q186 -141 380 -141t285 115t106 235h-605v291h605q-15 120 -106 235t-285 115t-380 -141v309q192 111 415 111q335 0 531.5 -208.5t196.5 -566t-196.5 -566t-531.5 -208.5q-223 0 -415 111z" />
<glyph unicode="&#x42e;" horiz-adv-x="2163" d="M169 0v1493h347v-602h172q25 251 192 440q168 189 491 189q324 0 507.5 -206t183.5 -569q0 -362 -183.5 -568t-507.5 -206q-323 0 -491 189q-167 189 -192 440h-172v-600h-347zM1038 745q0 -235 87 -365t246 -130t246.5 130t87.5 365q0 236 -87.5 366t-246.5 130 t-246 -130t-87 -366z" />
<glyph unicode="&#x42f;" horiz-adv-x="1419" d="M118 0l335 634q-69 43 -170.5 150.5t-101.5 256.5q0 224 123.5 338t389.5 114h556v-1493h-346v565h-118l-299 -565h-369zM527 1024q0 -103 47.5 -148t156.5 -45h173v383h-173q-109 0 -156.5 -44t-47.5 -146z" />
<glyph unicode="&#x430;" horiz-adv-x="1243" d="M79 336q0 197 122 289t383 92h190v28q0 85 -60.5 124.5t-187.5 39.5q-104 0 -193 -23t-166 -69v273q104 28 208.5 42.5t208.5 14.5q273 0 394 -119.5t121 -388.5v-639h-325v166q-65 -102 -146 -148.5t-197 -46.5q-157 0 -254.5 101.5t-97.5 263.5zM404 354 q0 -68 41 -106.5t114 -38.5q91 0 153 72.5t62 181.5v41h-167q-101 0 -152 -38t-51 -112z" />
<glyph unicode="&#x431;" horiz-adv-x="1287" d="M79 922q0 196 52 324q97 236 225 284q107 41 548 80q46 4 97 13l72 -222q-69 -20 -420 -54q-153 -15 -217 -63q-104 -79 -112 -228q132 91 331 91q260 0 406.5 -156t146.5 -432t-146 -432t-407 -156t-408 156t-147 432q0 38 -1 62l-6 167q-14 67 -14 134zM436 559 q0 -161 56 -246.5t162 -85.5t162 85.5t56 246.5t-56 246.5t-162 85.5t-162 -85.5t-56 -246.5z" />
<glyph unicode="&#x432;" horiz-adv-x="1166" d="M155 0v1120h461q225 0 325 -70.5t100 -225.5q0 -82 -36.5 -139.5t-106.5 -85.5q89 -27 138 -99.5t49 -178.5q0 -162 -105 -241.5t-319 -79.5h-506zM477 224h163q71 0 107 31.5t36 94.5q0 62 -36 93t-107 31h-163v-250zM477 698h152q56 0 84.5 25.5t28.5 75.5t-28.5 75 t-84.5 25h-152v-201z" />
<glyph unicode="&#x433;" horiz-adv-x="963" d="M155 0v1120h764v-221h-442v-899h-322z" />
<glyph unicode="&#x434;" horiz-adv-x="1488" d="M104 256h54q102 38 145 164.5t43 487.5v212h872v-864h167v-539h-230v283h-821v-283h-230v539zM594 256h302v608h-227v-31q0 -367 -75 -577z" />
<glyph unicode="&#x435;" horiz-adv-x="1250" d="M79 559q0 274 149 431t410 157q238 0 380.5 -159t142.5 -425v-102h-753q11 -126 81.5 -189t196.5 -63q102 0 208.5 33.5t218.5 101.5v-276q-114 -48 -228.5 -72.5t-228.5 -24.5q-274 0 -425.5 154.5t-151.5 433.5zM411 682h419q0 102 -53.5 164.5t-140.5 62.5 q-93 0 -151.5 -58.5t-73.5 -168.5z" />
<glyph unicode="&#x436;" horiz-adv-x="1834" d="M27 0l456 665l-421 455h353l341 -369v369h322v-369l341 369h353l-421 -455l456 -665h-333l-315 458l-81 -87v-371h-322v371l-81 87l-315 -458h-333z" />
<glyph unicode="&#x437;" horiz-adv-x="1071" d="M90 27v276q202 -94 321 -94q132 0 191 39.5t59 89.5q0 139 -260 139h-142v221h148q132 0 180 32t48 76q0 103 -212 103q-177 0 -287 -69v259q164 48 357 48q227 0 331.5 -71.5t104.5 -222.5q0 -198 -197 -249q222 -61 222 -286q0 -173 -122.5 -260t-384.5 -87 q-195 0 -357 56z" />
<glyph unicode="&#x438;" horiz-adv-x="1291" d="M155 0v1120h322v-596l325 596h335v-1120h-323v596l-324 -596h-335z" />
<glyph unicode="&#x439;" horiz-adv-x="1291" d="M155 0v1120h322v-596l325 596h335v-1120h-323v596l-324 -596h-335zM343 1566h129q10 -70 54.5 -107t119.5 -37t119.5 37t53.5 107h129q-5 -144 -83.5 -220.5t-218.5 -76.5q-141 0 -219 76.5t-84 220.5z" />
<glyph unicode="&#x43a;" horiz-adv-x="1251" d="M155 0v1120h322v-379l359 379h353l-430 -455l465 -665h-333l-323 463l-91 -96v-367h-322z" />
<glyph unicode="&#x43b;" horiz-adv-x="1350" d="M102 0v256q159 36 195 153q27 89 27 528v183h871v-1120h-322v864h-227v-37q0 -439 -62 -567q-126 -260 -482 -260z" />
<glyph unicode="&#x43c;" horiz-adv-x="1506" d="M155 0v1120h371l226 -560l227 560h372v-1120h-321v635l-170 -420h-212l-171 420v-635h-322z" />
<glyph unicode="&#x43d;" horiz-adv-x="1273" d="M155 0v1120h322v-426h319v426h323v-1120h-323v473h-319v-473h-322z" />
<glyph unicode="&#x43e;" horiz-adv-x="1266" d="M79 559q0 276 147.5 432t407.5 156q261 0 407 -156t146 -432t-146 -432t-407 -156q-260 0 -407.5 156t-147.5 432zM415 559q0 -161 56 -246.5t163 -85.5q106 0 161.5 85.5t55.5 246.5t-55.5 246.5t-161.5 85.5q-107 0 -163 -85.5t-56 -246.5z" />
<glyph unicode="&#x43f;" horiz-adv-x="1273" d="M155 0v1120h964v-1120h-323v864h-319v-864h-322z" />
<glyph unicode="&#x440;" horiz-adv-x="1319" d="M155 -426v1546h322v-164q67 98 148 144.5t186 46.5q186 0 306 -164.5t120 -423.5t-120 -423.5t-306 -164.5q-105 0 -186 46.5t-148 144.5v-588h-322zM477 559q0 -159 55.5 -243.5t158.5 -84.5q104 0 158.5 84t54.5 244t-54.5 244t-158.5 84q-103 0 -158.5 -84.5 t-55.5 -243.5z" />
<glyph unicode="&#x441;" horiz-adv-x="1092" d="M79 559q0 277 154 432.5t427 155.5q79 0 156 -15.5t153 -46.5v-292q-65 50 -131.5 74t-137.5 24q-135 0 -210 -87.5t-75 -244.5t75 -244.5t210 -87.5q76 0 144 25t125 74v-293q-75 -31 -153 -46.5t-156 -15.5q-273 0 -427 155.5t-154 432.5z" />
<glyph unicode="&#x442;" horiz-adv-x="1068" d="M7 899v221h1053v-221h-365v-899h-321v899h-367z" />
<glyph unicode="&#x443;" horiz-adv-x="1201" d="M22 1120h323l271 -760l230 760h322l-424 -1226q-64 -187 -149 -261.5t-224 -74.5h-187v235h101q82 0 119.5 29t58.5 104l9 31z" />
<glyph unicode="&#x444;" horiz-adv-x="1828" d="M102 559q0 259 119.5 423.5t305.5 164.5q131 0 226 -73v482h323v-482q95 73 225 73q187 0 306.5 -164.5t119.5 -423.5t-119.5 -423.5t-306.5 -164.5q-130 0 -225 73v-470h-323v470q-95 -73 -226 -73q-186 0 -305.5 164.5t-119.5 423.5zM435 559q0 -160 54.5 -244 t112.5 -84q96 0 151 74v508q-55 74 -151 74q-58 0 -112.5 -84t-54.5 -244zM1076 305q54 -74 151 -74q58 0 112.5 84t54.5 244t-54.5 244t-112.5 84q-97 0 -151 -74v-508z" />
<glyph unicode="&#x445;" horiz-adv-x="1188" d="M28 0l382 573l-364 547h341l206 -332l209 332h341l-364 -545l382 -575h-341l-227 354l-224 -354h-341z" />
<glyph unicode="&#x446;" horiz-adv-x="1366" d="M155 0v1120h322v-864h319v864h323v-864h167v-539h-230v283h-901z" />
<glyph unicode="&#x447;" horiz-adv-x="1265" d="M119 784v336h322v-199q0 -178 26 -222.5t95 -44.5h172v466h323v-1120h-323v433h-331q-135 0 -209.5 88.5t-74.5 262.5z" />
<glyph unicode="&#x448;" horiz-adv-x="1957" d="M155 0v1120h322v-864h335v864h322v-864h335v864h322v-1120h-1636z" />
<glyph unicode="&#x449;" horiz-adv-x="2037" d="M155 0v1120h322v-864h335v864h322v-864h335v864h322v-864h167v-539h-230v283h-1573z" />
<glyph unicode="&#x44a;" horiz-adv-x="1385" d="M36 899v221h668v-425h182q205 0 315 -83.5t110 -265.5t-111 -264t-314 -82h-504v899h-346zM704 224h163q71 0 107 31.5t36 94.5q0 62 -35.5 93t-107.5 31h-163v-250z" />
<glyph unicode="&#x44b;" horiz-adv-x="1666" d="M155 0v1120h322v-425h183q204 0 314 -83q110 -84 110 -266t-110 -264t-314 -82h-505zM477 224h163q71 0 107 32q36 31 36 94t-36 94q-35 30 -107 30h-163v-250zM1195 0v1120h322v-1120h-322z" />
<glyph unicode="&#x44c;" horiz-adv-x="1165" d="M155 0v1120h322v-425h183q204 0 314 -83q110 -84 110 -266t-110 -264t-314 -82h-505zM477 224h163q71 0 107 32q36 31 36 94t-36 94q-35 30 -107 30h-163v-250z" />
<glyph unicode="&#x44d;" horiz-adv-x="1092" d="M123 33v293q116 -99 260 -99q140 0 207.5 75t79.5 160h-429v201h427q-12 75 -76.5 151.5t-202 76.5t-266.5 -98v292q153 62 310 62q273 0 426.5 -155.5t153.5 -432.5t-153.5 -432.5t-426.5 -155.5q-159 0 -310 62z" />
<glyph unicode="&#x44e;" horiz-adv-x="1791" d="M155 0v1120h322v-449h131q18 192 153 334t396 142t407 -156t146 -432t-146 -432t-407 -156t-395 143q-135 144 -153 336h-132v-450h-322zM938 559q0 -161 56 -246.5t163 -85.5q106 0 161.5 85.5t55.5 246.5t-55.5 246.5t-161.5 85.5q-107 0 -163 -85.5t-56 -246.5z" />
<glyph unicode="&#x44f;" horiz-adv-x="1183" d="M57 0l263 479q-76 49 -133 134.5t-57 191.5q0 159 97 237t314 78h490v-1120h-322v409h-113l-225 -409h-314zM440 766q0 -72 35.5 -104t117.5 -32h116v271h-116q-82 0 -117.5 -31t-35.5 -104z" />
<glyph unicode="&#x450;" horiz-adv-x="1250" d="M79 559q0 274 149 431t410 157q238 0 380.5 -159t142.5 -425v-102h-753q11 -126 81.5 -189t196.5 -63q102 0 208.5 33.5t218.5 101.5v-276q-114 -48 -228.5 -72.5t-228.5 -24.5q-274 0 -425.5 154.5t-151.5 433.5zM218 1645h254l254 -376h-176zM411 682h419 q0 102 -53.5 164.5t-140.5 62.5q-93 0 -151.5 -58.5t-73.5 -168.5z" />
<glyph unicode="&#x451;" horiz-adv-x="1250" d="M79 559q0 274 149 431t410 157q238 0 380.5 -159t142.5 -425v-102h-753q11 -126 81.5 -189t196.5 -63q102 0 208.5 33.5t218.5 101.5v-276q-114 -48 -228.5 -72.5t-228.5 -24.5q-274 0 -425.5 154.5t-151.5 433.5zM354 1339v246h212v-246h-212zM411 682h419 q0 102 -53.5 164.5t-140.5 62.5q-93 0 -151.5 -58.5t-73.5 -168.5zM710 1339v246h211v-246h-211z" />
<glyph unicode="&#x452;" horiz-adv-x="1315" d="M36 899v221h160v436h322v-436h447v-221h-447v-295q143 191 315 191q181 0 290.5 -137.5t109.5 -417.5q0 -315 -168.5 -481t-384.5 -201v214q112 19 166 123.5t54 318.5q0 185 -42 248t-150 63q-74 0 -132 -86.5t-58 -239.5v-199h-322v899h-160z" />
<glyph unicode="&#x453;" horiz-adv-x="963" d="M155 0v1120h764v-221h-442v-899h-322zM448 1269l254 376h255l-332 -376h-177z" />
<glyph unicode="&#x454;" horiz-adv-x="1092" d="M79 559q0 277 154 432.5t427 155.5q156 0 309 -62v-292q-128 98 -266 98t-202.5 -76.5t-75.5 -151.5h426v-201h-428q12 -85 79.5 -160t206.5 -75q144 0 260 99v-293q-151 -62 -309 -62q-273 0 -427 155.5t-154 432.5z" />
<glyph unicode="&#x455;" horiz-adv-x="1097" d="M95 797q0 178 110 264t337 86q89 0 187 -15t213 -47v-272q-103 48 -199.5 72t-181.5 24q-92 0 -136.5 -25.5t-44.5 -78.5q0 -43 33.5 -66t121.5 -34l56 -9q248 -35 333.5 -115t85.5 -251q0 -179 -119 -269t-355 -90q-100 0 -206.5 17.5t-218.5 52.5v272q96 -52 197.5 -78 t205.5 -26q94 0 142 29t48 86q0 48 -33 71.5t-131 36.5l-57 8q-215 30 -301.5 111t-86.5 246z" />
<glyph unicode="&#x456;" horiz-adv-x="631" d="M155 0v1120h322v-1120h-322zM155 1264v292h322v-292h-322z" />
<glyph unicode="&#x457;" horiz-adv-x="631" d="M31 1339v246h212v-246h-212zM155 0v1120h322v-1120h-322zM387 1339v246h211v-246h-211z" />
<glyph unicode="&#x458;" horiz-adv-x="631" d="M-61 -207h56q91 0 125.5 46t34.5 181v1100h322v-1100q0 -225 -97 -343.5t-282 -118.5h-159v235zM155 1264v292h322v-292h-322z" />
<glyph unicode="&#x459;" horiz-adv-x="1827" d="M81 0v256q159 36 195 153q27 89 27 528v183h871v-425h138q204 0 314.5 -83.5t110.5 -265.5t-110.5 -264t-314.5 -82h-460v864h-226v-37q0 -439 -63 -567q-126 -260 -482 -260zM1174 224h118q72 0 108 31.5t36 94.5q0 62 -36 93t-108 31h-118v-250z" />
<glyph unicode="&#x45a;" horiz-adv-x="1762" d="M155 0v1120h322v-426h319v426h323v-425h137q205 0 315 -83.5t110 -265.5t-110 -264t-315 -82h-460v473h-319v-473h-322zM1119 224h118q71 0 107 31.5t36 94.5q0 62 -37.5 93t-105.5 31h-118v-250z" />
<glyph unicode="&#x45b;" horiz-adv-x="1353" d="M36 899v221h160v436h322v-436h447v-221h-447v-295q73 98 155 144.5t181 46.5q175 0 265.5 -119t90.5 -346v-330h-324v188q0 225 -38 281t-114 56q-102 0 -159 -86.5t-57 -239.5v-199h-322v899h-160z" />
<glyph unicode="&#x45c;" horiz-adv-x="1251" d="M155 0v1120h322v-379l359 379h353l-430 -455l465 -665h-333l-323 463l-91 -96v-367h-322zM504 1269l254 376h255l-332 -376h-177z" />
<glyph unicode="&#x45d;" horiz-adv-x="1291" d="M155 0v1120h322v-596l325 596h335v-1120h-323v596l-324 -596h-335zM325 1645h254l254 -376h-176z" />
<glyph unicode="&#x45e;" horiz-adv-x="1201" d="M22 1120h323l271 -760l230 760h322l-424 -1226q-64 -187 -149 -261.5t-224 -74.5h-187v235h101q82 0 119.5 29t58.5 104l9 31zM293 1566h129q10 -70 54.5 -107t119.5 -37t119.5 37t53.5 107h129q-5 -144 -83.5 -220.5t-218.5 -76.5q-141 0 -219 76.5t-84 220.5z" />
<glyph unicode="&#x45f;" horiz-adv-x="1273" d="M155 0v1120h322v-864h319v864h323v-1120h-367v-283h-230v283h-367z" />
<glyph unicode="&#x460;" horiz-adv-x="2014" d="M92 736q0 204 108 471q64 159 164 286h288q-58 -70 -151 -391q-47 -159 -47 -342q0 -281 50 -388q51 -109 144 -109q94 0 140 105q49 113 49 276v241h341v-241q0 -171 48.5 -276t139.5 -105q97 0 144 109q50 119 50 388q0 183 -46 342q-94 321 -152 391h287 q106 -134 165 -286q108 -281 108 -471q0 -410 -134 -588q-133 -177 -361 -177q-159 0 -269 94t-151 267q-42 -173 -151 -267q-110 -94 -269 -94q-234 0 -362 177q-133 184 -133 588z" />
<glyph unicode="&#x461;" horiz-adv-x="1602" d="M79 568q0 256 177 552h276q-117 -236 -117 -548q0 -313 126 -315q103 -2 99 455h322q-4 -457 99 -455q126 2 126 315q0 312 -117 548h276q177 -296 177 -552q0 -596 -398 -595q-294 1 -324 288q-30 -287 -324 -288q-398 -1 -398 595z" />
<glyph unicode="&#x462;" horiz-adv-x="1548" d="M90 1041v292h261v160h347v-160h260v-292h-260v-117h228q255 0 393 -111.5t138 -351.5q0 -238 -138 -349.5t-393 -111.5h-575v1041h-261zM698 262h203q109 0 159.5 47t50.5 140q0 91 -50 137.5t-160 46.5h-203v-371z" />
<glyph unicode="&#x463;" horiz-adv-x="1356" d="M36 919v256h310v322h322v-322h405v-256h-405v-224h182q205 0 315 -84t110 -265q0 -179 -110 -262.5t-315 -83.5h-504v919h-310zM668 224h163q71 0 107 31.5t36 94.5q0 62 -36 93t-107 31h-163v-250z" />
<glyph unicode="&#x464;" horiz-adv-x="1865" d="M169 0v1493h347v-569h102q39 234 183 388q196 208 532 208q112 0 215.5 -28t199.5 -83v-309q-96 73 -190 107t-197 34q-186 0 -292 -132q-61 -76 -87 -185h600v-291h-612q20 -153 99 -251q108 -132 292 -132q103 0 197 34t190 107v-309q-96 -55 -199.5 -83t-215.5 -28 q-335 0 -532 209q-165 175 -191 453h-94v-633h-347z" />
<glyph unicode="&#x465;" horiz-adv-x="1547" d="M155 0v1120h322v-435h43q28 188 145 307q154 155 427 155q79 0 155 -15q78 -16 154 -47v-292q-65 50 -132 74t-137 24q-135 0 -210 -87q-41 -49 -60 -119h358v-243h-360q18 -76 62 -128q75 -87 210 -87q76 0 144 25t125 74v-293q-75 -31 -154 -47q-77 -15 -155 -15 q-273 0 -427 155q-120 121 -147 316h-41v-442h-322z" />
<glyph unicode="&#x466;" horiz-adv-x="1828" d="M14 0l693 1493h414l693 -1493h-337l-241 521h-160v-521h-324v521h-159l-241 -521h-338zM723 801h383l-192 413z" />
<glyph unicode="&#x467;" horiz-adv-x="1533" d="M46 0l588 1120h266l588 -1120h-284l-187 356h-131v-356h-237v356h-131l-187 -356h-285zM629 569h276l-138 264z" />
<glyph unicode="&#x468;" horiz-adv-x="2503" d="M169 0v1493h347v-569h603l263 569h414l693 -1493h-337l-241 521h-160v-521h-324v521h-159l-241 -521h-338l294 633h-467v-633h-347zM1398 801h383l-192 413z" />
<glyph unicode="&#x469;" horiz-adv-x="2066" d="M155 0v1120h322v-451h455l237 451h266l587 -1120h-283l-187 356h-131v-356h-237v356h-132l-186 -356h-286l237 450h-340v-450h-322zM1164 569h276l-139 264z" />
<glyph unicode="&#x46a;" horiz-adv-x="1566" d="M92 0q0 363 183 569q102 114 247 165l-395 759h1312l-394 -759q144 -51 246 -165q183 -206 183 -569h-324q0 233 -96 366q-56 77 -140 108v-474h-272v470q-77 -32 -129 -104q-96 -133 -96 -366h-325zM559 1202l224 -431l223 431h-447z" />
<glyph unicode="&#x46b;" horiz-adv-x="1266" d="M79 0q0 276 148 432q73 77 173 116l-296 572h1062l-298 -572q100 -39 172 -116q147 -156 147 -432h-290q0 161 -67 246q-39 49 -97 70v-316h-202v314q-56 -21 -94 -68q-68 -85 -68 -246h-290zM473 899l161 -310l162 310h-323z" />
<glyph unicode="&#x46c;" horiz-adv-x="2277" d="M169 0v1493h347v-569h528l-296 569h1312l-394 -759q144 -51 246 -165q183 -206 183 -569h-324q0 233 -96 366q-56 77 -141 108v-474h-271v470q-77 -32 -129 -104q-96 -133 -96 -366h-325q0 364 183 568q32 35 68 65h-448v-633h-347zM1180 1202l224 -431l223 431h-447z " />
<glyph unicode="&#x46d;" horiz-adv-x="1856" d="M155 0v1120h322v-451h450l-233 451h1062l-297 -572q100 -39 172 -116q147 -156 147 -432h-290q0 161 -68 246q-38 49 -97 70v-316h-202v314q-55 -21 -93 -68q-69 -85 -69 -246h-289q0 284 147 432l18 18h-358v-450h-322zM1064 899l161 -310l162 310h-323z" />
<glyph unicode="&#x46e;" d="M100 -47q0 144 63 230q68 93 195 93h228q84 0 140 46q63 51 63 140q0 133 -176 170q-65 13 -259 13v248q14 0 54.5 -1t64.5 -1q285 0 285 186q0 180 -238 180q-168 0 -339 -83v282q129 40 255 55l-140 396h161l125 -387l76 233q32 100 63 130q38 38 126 38q43 0 68 -8 v-121q-36 5 -44 5q-41 0 -56 -43l-86 -243q375 -49 375 -374q0 -263 -245 -332q277 -80 277 -367q0 -205 -153 -328q-138 -110 -331 -110q-46 0 -112 7t-100 7q-73 0 -73 -87q0 -71 89 -95q49 -13 109 -13q42 0 126 8.5t125 8.5q112 0 230 -52v-210q-90 39 -175 49 q-41 5 -104 5q-30 0 -96 -1.5t-101 -1.5q-217 0 -322 53q-148 76 -148 275z" />
<glyph unicode="&#x46f;" horiz-adv-x="1026" d="M73 -52q0 95 59 174q62 84 146 84q32 0 96 1h98q51 0 95 36q49 40 49 95q0 100 -139 127q-47 9 -200 9v224q6 0 33.5 -1t45.5 -1q234 0 234 110q0 58 -71 89q-53 24 -114 24q-142 0 -260 -59v239q88 26 175 38l-140 397h161l125 -387l76 233q32 100 63 130q38 38 126 38 q44 0 68 -8v-121l-26 4q-12 1 -18 1q-41 0 -56 -43l-87 -244q272 -45 272 -284q0 -198 -197 -249q222 -61 222 -286q0 -160 -110 -245q-94 -73 -245 -73q-36 0 -93 5t-86 5q-71 0 -71 -92q0 -80 94 -100q37 -8 81 -8q31 0 94.5 5.5t95.5 5.5q92 0 193 -39v-178 q-76 29 -148 37q-40 4 -102 4h-66q-44 -1 -66 -1q-192 0 -280 47q-127 69 -127 257z" />
<glyph unicode="&#x470;" horiz-adv-x="1980" d="M16 1430h323l251 -774h177v837h345v-837h177l151 466q65 200 127 261q75 74 250 74q88 0 137 -16v-241l-52 7q-23 3 -36 3q-81 0 -112 -86l-288 -814h-354v-310h-345v310h-354z" />
<glyph unicode="&#x471;" horiz-adv-x="1955" d="M16 1120h323l251 -774h177v1209h320v-1209h177l151 466q65 200 127 261q74 74 250 74q88 0 137 -16v-241l-53 7q-22 3 -36 3q-80 0 -111 -86l-288 -814h-354v-426h-320v426h-354z" />
<glyph unicode="&#x472;" horiz-adv-x="1566" d="M92 745q0 363 183 569q185 206 508 206q324 0 507.5 -206t183.5 -569q0 -362 -183.5 -568t-507.5 -206q-323 0 -508 206q-183 206 -183 568zM453 662q13 -176 84 -282q88 -130 247 -130q158 0 246 130q71 106 84 282h-661zM464 920h638q-21 114 -72 191q-88 130 -246 130 q-159 0 -247 -130q-51 -77 -73 -191z" />
<glyph unicode="&#x473;" horiz-adv-x="1266" d="M79 559q0 276 147.5 432t407.5 156q261 0 407 -156t146 -432t-146 -432t-407 -156q-260 0 -407.5 156t-147.5 432zM418 486q10 -109 53 -174q55 -85 161 -85q107 0 163 85q43 65 53 174h-430zM425 680h417q-14 76 -47 126q-56 85 -163 85q-106 0 -161 -85 q-33 -50 -46 -126z" />
<glyph unicode="&#x474;" horiz-adv-x="1566" d="M9 1493h348l357 -1102l220 685q99 308 176.5 376t251.5 68q107 0 160 -21v-320q-27 3 -56 8t-48 5q-102 0 -140 -114l-358 -1078h-413z" />
<glyph unicode="&#x475;" horiz-adv-x="1281" d="M16 1120h323l251 -774l151 466q72 222 144 278.5t233 56.5q88 0 137 -16v-241l-53 7q-23 3 -36 3q-81 0 -111 -86l-288 -814h-354z" />
<glyph unicode="&#x476;" horiz-adv-x="1566" d="M9 1493h348l357 -1102l220 685q99 308 176.5 376t251.5 68q107 0 160 -21v-320q-27 3 -56 8t-48 5q-102 0 -140 -114l-358 -1078h-413zM282 1900h254l178 -264h-176zM619 1900h255l178 -264h-176z" />
<glyph unicode="&#x477;" horiz-adv-x="1281" d="M16 1120h323l251 -774l151 466q72 222 144 278.5t233 56.5q88 0 137 -16v-241l-53 7q-23 3 -36 3q-81 0 -111 -86l-288 -814h-354zM327 1638h208l194 -376h-157zM666 1638h196l174 -376h-146z" />
<glyph unicode="&#x478;" horiz-adv-x="2116" d="M86 745q0 293 123 514q143 261 390 261t390 -260q123 -222 123 -514q0 -293 -122 -514q-144 -261 -391 -261t-390 260q-123 222 -123 514zM440 585q0 -335 159 -335q102 0 137 124q21 72 21 218v306q0 146 -21 218q-35 125 -137 125t-137 -124q-21 -71 -21 -218 q0 -26 1 -77t1 -77q0 -17 -1.5 -71.5t-1.5 -88.5zM1100 -207q18 0 48 -1h42q82 0 118 26q44 33 79 139q34 100 64 187l-338 976h323l162 -536q53 170 163 536h323l-424 -1226q-60 -171 -133 -246q-90 -90 -241 -90h-186v235z" />
<glyph unicode="&#x479;" horiz-adv-x="1923" d="M79 559q0 237 131 409q136 179 337 179t337 -179q130 -172 130 -409t-130 -409q-136 -179 -337 -179t-337 179q-131 172 -131 409zM415 559q0 -150 18 -219q30 -113 114 -113t114 113q18 69 18 219q0 149 -18 219q-30 113 -114 113t-114 -113q-18 -70 -18 -219zM906 -207 q18 0 49 -1h41q82 0 117 26q45 33 80 139q35 100 64 187l-337 976h322l162 -536q53 170 164 536h322l-424 -1226q-59 -171 -133 -246q-89 -90 -240 -90h-187v235z" />
<glyph unicode="&#x47a;" horiz-adv-x="1980" d="M92 745q0 334 183 524q183 189 508 189h81q31 33 61 48q28 14 65 14t65 -14q30 -15 61 -48h81q325 0 508 -189q183 -190 183 -524q0 -335 -183 -523q-185 -189 -508 -189h-81q-32 -34 -61 -48q-30 -14 -65 -14t-65 14q-29 14 -61 48h-81q-323 0 -508 189 q-183 188 -183 523zM450 745q0 -216 87 -336q87 -118 246 -118h82q31 33 60 47q27 14 65 14t65 -14q29 -14 60 -47h82q159 0 246 118q87 120 87 336q0 217 -87 337q-88 119 -246 119h-81q-32 -34 -61 -48t-65 -14t-65 14t-61 48h-81q-158 0 -246 -119q-87 -120 -87 -337z " />
<glyph unicode="&#x47b;" horiz-adv-x="1590" d="M79 559q0 233 148 389q129 138 407 138h48l11 14q13 18 47 35q25 12 54.5 12t55.5 -12q33 -17 46 -35l11 -14h51q278 0 406 -138q147 -156 147 -389q0 -236 -147 -392q-127 -137 -406 -137h-53l-9 -12q-13 -18 -46 -35q-26 -12 -55.5 -12t-54.5 12q-29 15 -47 35 q-5 5 -10 12h-49q-278 0 -407 137q-148 156 -148 392zM415 559q0 -161 57 -247q55 -85 162 -85h46q6 9 13 18q14 18 47 35q25 12 54.5 12t55.5 -12q32 -17 46 -35q8 -9 14 -18h48q106 0 162 85q55 86 55 247q0 158 -55 244q-55 84 -162 84h-51l-11 -14q-13 -18 -46 -35 q-26 -12 -55.5 -12t-54.5 12q-34 17 -47 35l-11 14h-48q-108 0 -162 -84q-57 -86 -57 -244z" />
<glyph unicode="&#x47c;" horiz-adv-x="2590" d="M104 539q0 213 76 440q73 220 184 361h288q-70 -85 -141 -335q-75 -266 -75 -467q0 -275 151 -275q109 0 212 48q96 44 190 89q131 48 305 48q176 0 306 -48q96 -45 191 -89q103 -48 212 -48q151 0 151 279q0 202 -73 462q-70 247 -143 336h287q111 -141 184 -362 q76 -227 76 -440q0 -251 -108 -398q-124 -169 -374 -169q-87 0 -211 64l-227 118q-141 64 -271 64q-128 0 -270 -64l-225 -118q-125 -64 -212 -64q-249 0 -374 169q-109 148 -109 399zM915 1602v162q85 13 159 61q117 76 282 76q309 0 320 -297h-129q-20 144 -173 144 q-133 0 -199 -36q-168 -91 -260 -110zM1172 1218v122q131 0 132 135h-132v132h246v-101q0 -287 -246 -288z" />
<glyph unicode="&#x47d;" horiz-adv-x="2161" d="M86 470q0 160 45 337q47 184 125 313h276q-49 -100 -86 -297q-35 -184 -35 -310q0 -256 130 -256q51 0 177 74q140 82 202 95q84 17 161 17q78 0 161 -17q63 -14 203 -95q128 -74 176 -74q129 0 129 256q0 126 -34 310q-38 197 -86 297h276q78 -129 124 -313 q45 -177 45 -337q0 -227 -91 -355q-100 -142 -299 -142q-72 0 -178 75l-196 138q-121 75 -230 75t-231 -75l-194 -138q-107 -75 -179 -75q-199 0 -300 142q-91 128 -91 355zM701 1396v162q85 13 159 61q117 76 282 76q309 0 320 -297h-129q-20 144 -173 144q-133 0 -199 -36 q-168 -91 -260 -110zM958 1012v122q131 0 132 135h-132v132h246v-101q0 -287 -246 -288z" />
<glyph unicode="&#x47e;" horiz-adv-x="2014" d="M92 736q0 204 108 471q64 159 164 286h288q-58 -70 -151 -391q-47 -159 -47 -342q0 -281 50 -388q51 -109 144 -109q94 0 140 105q49 113 49 276v241h341v-241q0 -171 48.5 -276t139.5 -105q97 0 144 109q50 119 50 388q0 183 -46 342q-94 321 -152 391h287 q106 -134 165 -286q108 -281 108 -471q0 -410 -134 -588q-133 -177 -361 -177q-159 0 -269 94t-151 267q-42 -173 -151 -267q-110 -94 -269 -94q-234 0 -362 177q-133 184 -133 588zM527 1863h972l-108 -240h-54l-54 120h-189l-54 -120h-54l-54 120h-189l-54 -120h-54z" />
<glyph unicode="&#x47f;" horiz-adv-x="1602" d="M79 568q0 256 177 552h276q-117 -236 -117 -548q0 -313 126 -315q103 -2 99 455h322q-4 -457 99 -455q126 2 126 315q0 312 -117 548h276q177 -296 177 -552q0 -596 -398 -595q-294 1 -324 288q-30 -287 -324 -288q-398 -1 -398 595zM315 1527h972l-108 -240h-54l-54 120 h-189l-54 -120h-54l-54 120h-189l-54 -120h-54z" />
<glyph unicode="&#x480;" horiz-adv-x="1352" d="M92 745q0 358 196 567q196 208 532 208q112 0 215.5 -28t199.5 -83v-309q-97 73 -190.5 107t-196.5 34q-186 0 -292 -132t-106 -354q0 -200 106 -332t292 -132h360v-717h-346v426h-42q-354 0 -532 190q-196 208 -196 555z" />
<glyph unicode="&#x481;" horiz-adv-x="1092" d="M79 559q0 277 154 433q154 155 427 155q79 0 155 -15q78 -16 154 -47v-292q-65 50 -132 74q-66 24 -137 24q-135 0 -210 -87q-75 -88 -75 -245q0 -143 66 -225q68 -84 203 -84h267v-676h-323v426q-266 0 -407 146q-142 151 -142 413z" />
<glyph unicode="&#x482;" horiz-adv-x="1202" d="M50 380l108 208l194 -125l85 163l-194 126l108 208l194 -125l86 164l219 -140l-85 -163l194 -126l-108 -208l-194 125l-85 -164l194 -125l-108 -208l-194 124l-96 -181l-218 140l95 182z" />
<glyph unicode="&#x483;" horiz-adv-x="0" d="M-1108 1391q0 31 10 58q11 29 30 49q20 21 44 33q23 11 51 11h545q2 26 10 48q11 29 30 49q20 21 44 33q24 11 51.5 11t51.5 -11q24 -12 44 -33q19 -20 30 -49q9 -27 9 -58q0 -30 -9 -57q-11 -29 -30 -49q-20 -21 -44 -33q-24 -11 -51 -11h-546q-2 -25 -10 -48 q-11 -29 -30 -49q-19 -21 -44 -33q-23 -11 -51 -11t-51 11q-24 12 -44 33q-19 20 -30 49q-10 27 -10 57z" />
<glyph unicode="&#x484;" horiz-adv-x="0" d="M-761 1307v162q85 13 159 61q117 76 282 76q309 0 320 -297h-129q-20 144 -173 144q-133 0 -199 -36q-168 -91 -260 -110z" />
<glyph unicode="&#x485;" horiz-adv-x="0" d="M-673 1506v101h246v-132h-132q1 -135 132 -135v-122q-246 1 -246 288z" />
<glyph unicode="&#x486;" horiz-adv-x="0" d="M-673 1218v122q131 0 132 135h-132v132h246v-101q0 -287 -246 -288z" />
<glyph unicode="&#x487;" horiz-adv-x="0" d="M-1467 1253q131 360 509 360q121 0 414 -123q275 -116 552 -115v-162q-396 23 -608 115q-259 113 -376 120q-190 12 -326 -195h-165z" />
<glyph unicode="&#x488;" horiz-adv-x="770" d="M-1971 619q5 144 83.5 220.5t219 76.5t218.5 -76.5t84 -220.5h-129q-10 70 -54.5 107t-119 37t-119 -37t-54.5 -107h-129zM-1668 -77q6 144 84 220.5t218.5 76.5t219 -76.5t83.5 -220.5h-129q-10 70 -54.5 107t-119 37t-119 -37t-54.5 -107h-129zM-1668 1315 q6 144 84 220.5t218.5 76.5t219 -76.5t83.5 -220.5h-129q-10 70 -54.5 107t-119 37t-119 -37t-54.5 -107h-129zM-935 -366q5 144 83.5 220.5t219 76.5t218.5 -76.5t84 -220.5h-129q-10 70 -54.5 107t-119 37t-119 -37t-54.5 -107h-129zM-935 1603q5 144 83.5 220.5t219 76.5 t218.5 -76.5t84 -220.5h-129q-10 70 -54.5 107t-119 37t-119 -37t-54.5 -107h-129zM-202 -77q5 144 83.5 220.5t218.5 76.5t218.5 -76.5t83.5 -220.5h-128q-10 70 -54.5 107t-119.5 37t-119.5 -37t-54.5 -107h-128zM-202 1315q5 144 83.5 220.5t218.5 76.5t218.5 -76.5 t83.5 -220.5h-128q-10 70 -54.5 107t-119.5 37t-119.5 -37t-54.5 -107h-128zM101 619q5 144 83.5 220.5t219 76.5t218.5 -76.5t84 -220.5h-129q-10 70 -54.5 107t-119.5 37t-119.5 -37t-53.5 -107h-129z" />
<glyph unicode="&#x489;" horiz-adv-x="770" d="M-1836 788v189l288 -82h155v-271h-155zM-1623 -29l256 168l109 122l173 -192l-110 -121l-308 -111zM-1467 1723l121 133l151 -284l110 -121l-173 -192l-109 122zM-832 -573l74 320v172h244v-172l-148 -320h-170zM-759 1601v172l148 320h170l-74 -320v-172h-244zM-187 69 l173 192l108 -122l100 -342l-120 -133l-151 284zM-187 1451l110 121l307 111l120 -134l-256 -168l-108 -122zM121 625v271h154l288 -164v-189l-288 82h-154z" />
<glyph unicode="&#x48a;" horiz-adv-x="1764" d="M169 0v1493h329v-1024l488 1024h387v-1202h346v-291l-437 -426h-232l323 426h-328v1024l-489 -1024h-387zM439 1899h129q18 -61 61.5 -91t111.5 -30q69 0 112 30t62 91h129q-15 -129 -92.5 -196.5t-210.5 -67.5t-210.5 67.5t-91.5 196.5z" />
<glyph unicode="&#x48b;" horiz-adv-x="1486" d="M155 0v1120h322v-596l307 596h335v-899h323v-221l-403 -426h-216l296 426h-324v593l-305 -593h-335zM334 1566h129q10 -70 54.5 -107t119.5 -37t119.5 37t53.5 107h129q-5 -144 -83.5 -220.5t-218.5 -76.5q-141 0 -219 76.5t-84 220.5z" />
<glyph unicode="&#x48c;" horiz-adv-x="1404" d="M43 1112v194h126v187h347v-187h126v-194h-126v-188h228q255 0 400 -117q131 -106 131 -346q0 -238 -131 -344q-145 -117 -400 -117h-575v1112h-126zM516 262h203q109 0 158 45q52 49 52 142q0 91 -52 139q-48 45 -158 45h-203v-371z" />
<glyph unicode="&#x48d;" horiz-adv-x="1126" d="M1 864v256h160v318h322v-318h161v-256h-161v-169h138q203 0 319 -88q106 -79 106 -261q0 -179 -106 -258q-115 -88 -319 -88h-460v864h-160zM483 224h118q71 0 107 32q36 31 36 94q0 59 -36 92q-35 32 -107 32h-118v-250z" />
<glyph unicode="&#x48e;" horiz-adv-x="1350" d="M169 0v1493h575q257 0 394 -127q137 -126 137 -360q-1 -188 -87 -306l106 -99l-95 -126l-128 119q-126 -76 -327 -76h-228v-518h-347zM516 797h191q69 0 118 26l-105 99l95 126l99 -92q4 18 4 50q0 100 -55 154t-156 54h-191v-417z" />
<glyph unicode="&#x48f;" horiz-adv-x="1319" d="M155 -426v1546h322v-164q67 98 148 144q81 47 186 47q186 0 306 -165q120 -164 120 -423t-120 -423q-16 -21 -23 -29l101 -135l-134 -125l-113 150q-62 -25 -137 -26q-105 0 -186 47q-81 46 -148 144v-588h-322zM477 559q0 -159 56 -243q55 -85 158 -85q38 -2 71 12 l-120 160l134 125l106 -140q22 72 22 171q0 160 -54 244q-55 84 -158.5 84t-158.5 -85q-56 -84 -56 -243z" />
<glyph unicode="&#x490;" horiz-adv-x="1174" d="M169 0v1493h693v306h262v-597h-608v-1202h-347z" />
<glyph unicode="&#x491;" horiz-adv-x="963" d="M155 0v1120h565v314h199v-535h-442v-899h-322z" />
<glyph unicode="&#x492;" horiz-adv-x="1226" d="M52 622v291h169v580h955v-291h-608v-289h401v-291h-401v-622h-347v622h-169z" />
<glyph unicode="&#x493;" horiz-adv-x="1000" d="M38 449v221h155v450h764v-221h-442v-229h306v-221h-306v-449h-322v449h-155z" />
<glyph unicode="&#x494;" horiz-adv-x="1489" d="M169 0v1493h955v-291h-608v-278h470q172 0 264 -119q91 -117 91 -346v-314q0 -279 -137 -417q-136 -138 -412 -138h-70v291h54q108 0 164 67q54 67 54 197v131q0 147 -6 202q-5 55 -20 81q-18 35 -51 55q-32 19 -74 19h-327v-633h-347z" />
<glyph unicode="&#x495;" horiz-adv-x="1233" d="M155 0v1120h764v-221h-442v-235h233q185 0 282 -118q97 -119 97 -346v-180q0 -225 -97 -344q-97 -118 -282 -118h-161v235h56q92 0 126 46t34 181v182q0 135 -34 181t-126 46h-128v-429h-322z" />
<glyph unicode="&#x496;" horiz-adv-x="2256" d="M27 0l550 895l-491 598h363l506 -616v616h346v-616l506 616h364l-492 -598l371 -604h179v-291v-321h-345v321h-36l-386 629l-161 -195v-434h-346v434l-160 195l-386 -629h-382z" />
<glyph unicode="&#x497;" horiz-adv-x="1834" d="M27 0l456 665l-421 455h353l341 -369v369h322v-369l341 369h353l-421 -455l305 -444h151v-221v-283h-322v283h-11l-315 458l-81 -87v-371h-322v371l-81 87l-315 -458h-333z" />
<glyph unicode="&#x498;" horiz-adv-x="1309" d="M122 45v297q97 -54 192.5 -81.5t233.5 -27.5q147 0 220.5 53t73.5 152q0 102 -75.5 154.5t-248.5 52.5h-166v248h173q157 0 221 45.5t64 138.5q0 86 -62 133t-185 47q-127 0 -238 -24.5t-173 -58.5v282q60 23 193 43.5t217 20.5q295 0 444.5 -95.5t149.5 -287.5 q0 -131 -62 -214.5t-183 -117.5q136 -39 206.5 -135.5t70.5 -245.5q0 -222 -153 -337.5t-473 -115.5q-133 0 -238 19t-202 55zM365 -223q45 -16 82.5 -23.5t66.5 -7.5q52 0 81.5 23t29.5 63q0 26 -19.5 67t-59.5 101h125q52 -62 77 -115t25 -100q0 -95 -55.5 -140.5 t-170.5 -45.5q-43 0 -88.5 6.5t-92.5 19.5z" />
<glyph unicode="&#x499;" horiz-adv-x="1071" d="M90 27v276q202 -94 321 -94q132 0 191 39.5t59 89.5q0 139 -260 139h-142v221h148q132 0 180 32t48 76q0 103 -212 103q-177 0 -287 -69v259q164 48 357 48q227 0 331.5 -71.5t104.5 -222.5q0 -198 -197 -249q222 -61 222 -286q0 -173 -122.5 -260t-384.5 -87 q-195 0 -357 56zM271 -223q45 -16 82.5 -23.5t66.5 -7.5q52 0 81.5 23t29.5 63q0 26 -19.5 67t-59.5 101h125q52 -62 77 -115t25 -100q0 -95 -55.5 -140.5t-170.5 -45.5q-43 0 -88.5 6.5t-92.5 19.5z" />
<glyph unicode="&#x49a;" horiz-adv-x="1428" d="M169 0v1493h347v-616l542 616h392l-534 -605l379 -597h185v-291v-321h-346v321h-36l-404 636l-178 -202v-434h-347z" />
<glyph unicode="&#x49b;" horiz-adv-x="1251" d="M155 0v1120h322v-379l359 379h353l-430 -455l310 -444h155v-221v-283h-322v283h-11l-323 463l-91 -96v-367h-322z" />
<glyph unicode="&#x49c;" horiz-adv-x="1506" d="M169 0v1493h347v-616l110 126v323h135v-170l297 337h392l-534 -605l564 -888h-382l-337 530v-326h-135v355l-110 -125v-434h-347z" />
<glyph unicode="&#x49d;" horiz-adv-x="1251" d="M155 0v1120h322v-379l92 97v232h99v-128l168 178h353l-430 -455l465 -665h-333l-223 320v-240h-99v382l-1 1l-91 -96v-367h-322z" />
<glyph unicode="&#x49e;" horiz-adv-x="1506" d="M43 1216v194h126v83h347v-83h126v-194h-126v-339l542 616h392l-534 -605l564 -888h-382l-404 636l-178 -202v-434h-347v1216h-126z" />
<glyph unicode="&#x49f;" horiz-adv-x="1251" d="M13 1237v205h142v114h322v-114h293v-205h-293v-496l359 379h353l-430 -455l465 -665h-333l-323 463l-91 -96v-367h-322v1237h-142z" />
<glyph unicode="&#x4a0;" horiz-adv-x="1871" d="M45 1202v291h489h346v-616l542 616h392l-533 -605l563 -888h-382l-404 636l-178 -202v-434h-346v1202h-489z" />
<glyph unicode="&#x4a1;" horiz-adv-x="1522" d="M36 899v221h391h322v-379l359 379h353l-431 -455l466 -665h-333l-323 463l-91 -96v-367h-322v899h-391z" />
<glyph unicode="&#x4a2;" horiz-adv-x="1762" d="M169 0v1493h347v-569h511v569h346l-1 -1202h345v-612h-345v321h-345v633h-511v-633h-347z" />
<glyph unicode="&#x4a3;" horiz-adv-x="1488" d="M155 0v1120h322v-426h319v426h323l1 -899h324v-504h-324v283h-324v473h-319v-473h-322z" />
<glyph unicode="&#x4a4;" horiz-adv-x="2032" d="M169 0v1493h347v-569h511v569h955v-291h-609v-1202h-346v633h-511v-633h-347z" />
<glyph unicode="&#x4a5;" horiz-adv-x="1611" d="M155 0v1120h322v-426h319v426h765v-221h-442v-899h-323v473h-319v-473h-322z" />
<glyph unicode="&#x4a6;" horiz-adv-x="2347" d="M169 0v1493h1204v-569h470q173 0 265 -119q91 -117 91 -346v-314q0 -279 -137 -417q-136 -138 -412 -138h-70v291h54q108 0 163 67t55 197v131q0 147 -6 202t-20 81q-19 35 -51 55q-33 19 -74 19h-328v-633h-346v1202h-511v-1202h-347z" />
<glyph unicode="&#x4a7;" horiz-adv-x="1874" d="M155 0v1120h964v-456h233q184 0 282 -118q97 -119 97 -346v-180q0 -225 -97 -344q-98 -118 -282 -118h-161v235h55q92 0 126.5 46t34.5 181v182q0 135 -34.5 181t-126.5 46h-127v-429h-323v899h-319v-899h-322z" />
<glyph unicode="&#x4a8;" horiz-adv-x="1754" d="M104 747q0 160 40.5 299.5t119 243t192 165t259.5 66.5v-291q-52 -12 -100 -46.5t-85 -94t-59.5 -144.5t-22.5 -198q0 -99 24 -187t67.5 -153.5t105.5 -103.5t140 -38q70 0 116 10t69 24q-50 48 -94 104.5t-76 122.5t-50.5 142.5t-18.5 164.5q0 66 13 135t38.5 134.5 t64 123.5t89 101.5t113.5 68.5t137 25q70 0 126.5 -25t100 -67t75 -98t52 -117.5t30 -125t9.5 -121.5q0 -69 -11 -143t-35.5 -148t-63 -145t-95.5 -133q27 -26 61 -29.5t76 -3.5q56 0 101.5 11t91.5 37v-298q-42 -23 -96 -33.5t-109 -10.5q-72 0 -154 21.5t-164 81.5 q-76 -57 -173.5 -80t-213.5 -23q-153 0 -280 58t-218 161.5t-141.5 246t-50.5 310.5zM1065 827q0 -68 9.5 -130t25 -114.5t36 -93t40.5 -65.5q28 40 46 87.5t29 98.5t15 103.5t4 103.5q0 55 -6 111t-18.5 101t-33 73.5t-48.5 28.5q-26 0 -44.5 -28.5t-31 -72.5t-18 -98 t-5.5 -105z" />
<glyph unicode="&#x4a9;" horiz-adv-x="1581" d="M102 552q0 131 36 239t105 186t170 122t230 47v-256q-52 -5 -90.5 -31.5t-63.5 -70t-38 -102t-13 -125.5q0 -75 19 -137t53 -105.5t83.5 -67.5t110.5 -24q28 0 61 7.5t56 20.5q-35 28 -66 65t-53 81.5t-35 96.5t-13 111q0 93 24 172.5t71.5 137t119 90t165.5 32.5 q87 0 158 -28.5t121.5 -80.5t77.5 -125t27 -162q0 -123 -46.5 -219t-153.5 -171q36 -16 80 -22.5t82 -6.5q48 0 87.5 6.5t73.5 26.5v-242q-15 -10 -32 -18.5t-37 -14.5t-45.5 -9.5t-58.5 -3.5q-51 0 -96 5t-88 16t-84 30t-84 47q-40 -27 -82 -45.5t-89 -30.5t-100 -17 t-115 -5q-105 0 -201 42t-168.5 118.5t-115.5 183.5t-43 237zM949 607q0 -175 81 -259q27 27 45.5 60t29.5 68t16 70.5t5 65.5q0 48 -9 82t-22.5 55t-30 31t-32.5 10q-34 0 -58.5 -48t-24.5 -135z" />
<glyph unicode="&#x4aa;" horiz-adv-x="1352" d="M92 745q0 358 196 566.5t532 208.5q112 0 215.5 -28t199.5 -83v-309q-97 73 -190.5 107t-196.5 34q-186 0 -292 -132t-106 -364q0 -231 106 -363t292 -132q103 0 196.5 34t190.5 107v-309q-96 -55 -199.5 -83t-215.5 -28q-336 0 -532 208.5t-196 565.5zM570 -223 q45 -16 82.5 -23.5t66.5 -7.5q52 0 81.5 23t29.5 63q0 26 -19.5 67t-59.5 101h125q52 -62 77 -115t25 -100q0 -95 -55.5 -140.5t-170.5 -45.5q-43 0 -88.5 6.5t-92.5 19.5z" />
<glyph unicode="&#x4ab;" horiz-adv-x="1092" d="M79 559q0 277 154 432.5t427 155.5q79 0 156 -15.5t153 -46.5v-292q-65 50 -131.5 74t-137.5 24q-135 0 -210 -87.5t-75 -244.5t75 -244.5t210 -87.5q76 0 144 25t125 74v-293q-75 -31 -153 -46.5t-156 -15.5q-273 0 -427 155.5t-154 432.5zM402 -223q45 -16 82.5 -23.5 t66.5 -7.5q52 0 81.5 23t29.5 63q0 26 -19.5 67t-59.5 101h125q52 -62 77 -115t25 -100q0 -95 -55.5 -140.5t-170.5 -45.5q-43 0 -88.5 6.5t-92.5 19.5z" />
<glyph unicode="&#x4ac;" horiz-adv-x="1257" d="M9 1202v291h1238v-291h-445l-3 -911h346v-612h-346v321h-344v1202h-446z" />
<glyph unicode="&#x4ad;" horiz-adv-x="1068" d="M7 899v221h1053v-221h-365v-678h323v-504h-323v283h-321v899h-367z" />
<glyph unicode="&#x4ae;" horiz-adv-x="1334" d="M-18 1493h379l306 -532l306 532h380l-512 -864v-629h-347v629z" />
<glyph unicode="&#x4af;" horiz-adv-x="1201" d="M22 1120h323l271 -760l230 760h322l-449 -1163v-399h-247v399z" />
<glyph unicode="&#x4b0;" horiz-adv-x="1334" d="M-18 1493h379l306 -532l306 532h380l-512 -864v-192h199v-192h-199v-245h-347v245h-199v192h199v192z" />
<glyph unicode="&#x4b1;" horiz-adv-x="1201" d="M22 1120h323l271 -760l230 760h322l-449 -1163v-63h254v-192h-254v-144h-247v144h-243v192h243v63z" />
<glyph unicode="&#x4b2;" horiz-adv-x="1421" d="M35 0l466 762l-448 731h362l294 -481l294 481h363l-448 -731l288 -471h178v-612h-262v321h-99l-314 510l-311 -510h-363z" />
<glyph unicode="&#x4b3;" horiz-adv-x="1188" d="M28 0l382 573l-364 547h341l206 -332l209 332h341l-364 -545l235 -354h147v-504h-322v283h-19l-227 354l-224 -354h-341z" />
<glyph unicode="&#x4b4;" horiz-adv-x="2050" d="M9 1202v291h1238v-291h-445v-911h511v1202h347v-1202h345v-612h-345v321h-1205v1202h-446z" />
<glyph unicode="&#x4b5;" horiz-adv-x="1844" d="M7 899v221h1053v-221h-365v-678h459v899h322v-899h322v-504h-322v283h-1102v899h-367z" />
<glyph unicode="&#x4b6;" horiz-adv-x="1489" d="M148 1098v395h347v-111v-101q0 -138 6 -202q6 -55 20 -81q19 -35 51 -55q33 -19 74 -19h328v569h346v-1202h346v-612h-346v321h-346v633h-470q-171 0 -265 119q-91 115 -91 346z" />
<glyph unicode="&#x4b7;" horiz-adv-x="1265" d="M119 824v296h322v-84v-75q0 -104 5 -152q5 -43 16 -61q14 -25 41 -40q26 -14 59 -14h172v426h323v-899h323v-504h-323v283h-323v473h-331q-135 0 -211 91q-73 86 -73 260z" />
<glyph unicode="&#x4b8;" horiz-adv-x="1489" d="M148 1098v395h347v-111v-101q0 -138 6 -202q6 -55 20 -81q19 -35 51 -55q33 -19 74 -19h24v325h135v-325h169v569h346v-1493h-346v633h-169v-177h-135v177h-166q-171 0 -265 119q-91 115 -91 346z" />
<glyph unicode="&#x4b9;" horiz-adv-x="1265" d="M119 824v296h322v-84v-75q0 -104 5 -152q5 -43 16 -61q14 -25 41 -40q21 -12 51 -14v226h98v-226h82v426h323v-1120h-323v473h-82v-188h-98v188h-151q-135 0 -211 91q-73 86 -73 260z" />
<glyph unicode="&#x4ba;" horiz-adv-x="1489" d="M148 0v1493h347v-569h470q171 0 264 -119q91 -115 91 -346v-459h-346v111v165q0 138 -6 202q-6 55 -20 81q-19 35 -52 55q-32 19 -73 19h-328v-633h-347z" />
<glyph unicode="&#x4bb;" horiz-adv-x="1312" d="M155 0v1556h322v-600q73 98 155 144.5t181 46.5q174 0 264.5 -119t90.5 -346v-682h-324v111v409q0 147 -6 202t-20 81q-19 35 -51.5 54.5t-73.5 19.5q-101 0 -158.5 -86.5t-57.5 -239.5v-551h-322z" />
<glyph unicode="&#x4bc;" horiz-adv-x="1891" d="M14 1172v78h261v-87q0 -99 61 -182q46 -63 93 -61q40 243 174 394q184 206 508 206q323 0 506 -206q185 -204 182 -652h-1020q0 -157 110 -284q113 -128 320 -128q111 0 222 35q112 35 224 106v-309q-109 -55 -232 -83t-257 -28q-347 0 -547 207q-177 182 -197 484 q-160 0 -284 152q-124 151 -124 358zM791 920h638q-21 114 -73 191q-87 130 -245 130q-160 0 -247 -130q-52 -77 -73 -191z" />
<glyph unicode="&#x4bd;" horiz-adv-x="1492" d="M9 882v48h211v-70q0 -93 37.5 -135.5t69.5 -42.5q29 188 160.5 326.5t392.5 138.5q238 0 380.5 -159t142.5 -425v-102h-753q12 -126 82 -189t196 -63q102 0 208.5 33.5t218.5 101.5v-276q-114 -48 -228.5 -72.5t-228.5 -24.5q-273 0 -411.5 140.5t-159.5 349.5 q-105 0 -211.5 108t-106.5 313zM653 682h419q0 102 -53.5 164.5t-140.5 62.5q-93 0 -151.5 -58.5t-73.5 -168.5z" />
<glyph unicode="&#x4be;" horiz-adv-x="1891" d="M14 1172v78h261v-87q0 -99 61 -182q46 -63 93 -61q40 243 174 394q184 206 508 206q322 0 506 -206q185 -205 182 -652h-1020q0 -157 110 -284q113 -128 320 -128q111 0 222 35q112 35 224 106v-309q-109 -55 -232 -83q-67 -15 -137 -22v-354h-262v358q-247 35 -405 197 q-177 183 -197 484q-160 0 -284 152q-124 151 -124 358zM791 920h638q-21 114 -73 191q-87 130 -245 130q-160 0 -247 -130q-52 -77 -73 -191z" />
<glyph unicode="&#x4bf;" horiz-adv-x="1492" d="M9 882v48h211v-70q0 -93 37.5 -135.5t69.5 -42.5q29 188 160.5 326.5t392.5 138.5q238 0 380.5 -159t142.5 -425v-102h-753q12 -126 82 -189t196 -63q102 0 208.5 33.5t218.5 101.5v-276q-114 -48 -228 -72q-67 -14 -133 -21v-304h-230v310q-175 27 -278 131 q-139 140 -159 349q-105 0 -211.5 108t-106.5 313zM653 682h419q0 102 -53.5 164.5t-140.5 62.5q-93 0 -151.5 -58.5t-73.5 -168.5z" />
<glyph unicode="&#x4c0;" horiz-adv-x="685" d="M169 0v1493h347v-1493h-347z" />
<glyph unicode="&#x4c1;" horiz-adv-x="2256" d="M27 0l550 895l-491 598h363l506 -616v616h346v-616l506 616h364l-492 -598l550 -895h-381l-386 629l-161 -195v-434h-346v434l-160 195l-386 -629h-382zM833 1899h129q18 -61 61.5 -91t111.5 -30q69 0 112 30t62 91h129q-15 -129 -92.5 -196.5t-210.5 -67.5t-210.5 67.5 t-91.5 196.5z" />
<glyph unicode="&#x4c2;" horiz-adv-x="1834" d="M27 0l456 665l-421 455h353l341 -369v369h322v-369l341 369h353l-421 -455l456 -665h-333l-315 458l-81 -87v-371h-322v371l-81 87l-315 -458h-333zM633 1606h129q10 -70 54.5 -107t119.5 -37t119.5 37t53.5 107h129q-5 -144 -83.5 -220.5t-218.5 -76.5q-141 0 -219 76.5 t-84 220.5z" />
<glyph unicode="&#x4c3;" horiz-adv-x="1428" d="M169 0v1493h347v-545l499 545h403l-522 -569h90q172 0 264 -119q91 -117 91 -346v-314q0 -279 -137 -417q-136 -138 -412 -138h-70v291h54q108 0 164 67q54 67 54 197v131q0 147 -6 202q-5 55 -20 81q-18 35 -51 55q-32 19 -74 19h-327v-633h-347z" />
<glyph unicode="&#x4c4;" horiz-adv-x="1161" d="M155 0v1120h322v-321l319 321h358l-446 -456h2q185 0 282 -118q97 -119 97 -346v-180q0 -225 -97 -344q-97 -118 -282 -118h-161v235h56q92 0 126 46t34 181v182q0 135 -34 181t-126 46h-128v-429h-322z" />
<glyph unicode="&#x4c5;" horiz-adv-x="1752" d="M49 -28v278q218 45 278 218q78 227 78 743v282h957v-1202h345v-291l-437 -426h-231l323 426h-347v1202h-263v-91q0 -457 -112 -796q-107 -324 -591 -343z" />
<glyph unicode="&#x4c6;" horiz-adv-x="1484" d="M39 -29v256q178 34 222 153q63 170 63 528v212h792v-899h323v-221l-403 -426h-216l296 426h-322v899h-148v-66q0 -326 -98 -602q-86 -243 -509 -260z" />
<glyph unicode="&#x4c7;" horiz-adv-x="1542" d="M169 0v1493h347v-569h511v569h346v-1348q0 -279 -136 -417t-413 -138h-70v291h54q108 0 164 67q55 67 55 197v488h-511v-633h-347z" />
<glyph unicode="&#x4c8;" horiz-adv-x="1273" d="M155 0v1120h322v-426h319v426h323l1 -1100q0 -225 -97 -344q-97 -118 -281 -118h-162v235h56q92 0 126 46t34 181v453h-319v-473h-322z" />
<glyph unicode="&#x4c9;" horiz-adv-x="1764" d="M169 0v1493h347v-569h511v569h346v-1202h346v-291l-437 -426h-232l323 426h-346v633h-511v-633h-347z" />
<glyph unicode="&#x4ca;" horiz-adv-x="1486" d="M155 0v1120h322v-426h319v426h323v-899h323v-221l-403 -426h-216l296 426h-323v473h-319v-473h-322z" />
<glyph unicode="&#x4cb;" horiz-adv-x="1489" d="M148 1098v395h347v-111v-101q0 -138 6 -202q6 -55 20 -81q19 -35 51 -55q33 -19 74 -19h328v569h346v-1493h-346v-321h-346v612h346v342h-470q-171 0 -265 119q-91 115 -91 346z" />
<glyph unicode="&#x4cc;" horiz-adv-x="1265" d="M119 824v296h322v-84v-75q0 -104 5 -152q5 -43 16 -61q14 -25 41 -40q26 -14 59 -14h172v426h323v-1120h-323v-283h-323v504h323v252h-331q-135 0 -211 91q-73 86 -73 260z" />
<glyph unicode="&#x4cd;" horiz-adv-x="2054" d="M169 0v1493h441l306 -799l308 799h440v-1202h346v-291l-438 -426h-231l323 426h-328v1092l-309 -805h-220l-309 805v-1092h-329z" />
<glyph unicode="&#x4ce;" horiz-adv-x="1719" d="M155 0v1120h371l226 -560l227 560h372v-899h323v-221l-403 -426h-216l296 426h-321v635l-170 -420h-212l-171 420v-635h-322z" />
<glyph unicode="&#x4cf;" horiz-adv-x="631" d="M155 0v1556h322v-1556h-322z" />
<glyph unicode="&#x4d0;" horiz-adv-x="1426" d="M9 0l498 1493h413l498 -1493h-349l-84 272h-542l-86 -272h-348zM407 1914h129q10 -70 54.5 -107t119.5 -37t119.5 37t53.5 107h129q-5 -144 -83.5 -220.5t-218.5 -76.5q-141 0 -219 76.5t-84 220.5zM529 549h368l-183 594z" />
<glyph unicode="&#x4d1;" horiz-adv-x="1243" d="M79 336q0 197 122 289t383 92h190v28q0 85 -60.5 124.5t-187.5 39.5q-104 0 -193 -23t-166 -69v273q104 28 208.5 42.5t208.5 14.5q273 0 394 -119.5t121 -388.5v-639h-325v166q-65 -102 -146 -148.5t-197 -46.5q-157 0 -254.5 101.5t-97.5 263.5zM354 1597h129 q10 -70 54.5 -107t119.5 -37t119.5 37t53.5 107h129q-5 -144 -83.5 -220.5t-218.5 -76.5q-141 0 -219 76.5t-84 220.5zM404 354q0 -68 41 -106.5t114 -38.5q91 0 153 72.5t62 181.5v41h-167q-101 0 -152 -38t-51 -112z" />
<glyph unicode="&#x4d2;" horiz-adv-x="1426" d="M9 0l498 1493h413l498 -1493h-349l-84 272h-542l-86 -272h-348zM424 1653v246h211v-246h-211zM529 549h368l-183 594zM779 1653v246h212v-246h-212z" />
<glyph unicode="&#x4d3;" horiz-adv-x="1243" d="M79 336q0 197 122 289t383 92h190v28q0 85 -60.5 124.5t-187.5 39.5q-104 0 -193 -23t-166 -69v273q104 28 208.5 42.5t208.5 14.5q273 0 394 -119.5t121 -388.5v-639h-325v166q-65 -102 -146 -148.5t-197 -46.5q-157 0 -254.5 101.5t-97.5 263.5zM344 1339v246h212v-246 h-212zM404 354q0 -68 41 -106.5t114 -38.5q91 0 153 72.5t62 181.5v41h-167q-101 0 -152 -38t-51 -112zM700 1339v246h211v-246h-211z" />
<glyph unicode="&#x4d4;" horiz-adv-x="1999" d="M0 0l562 1493h1283v-291h-588v-278h553v-291h-553v-342h609v-291h-955v350h-445l-132 -350h-334zM572 627h339v610h-109z" />
<glyph unicode="&#x4d5;" horiz-adv-x="1931" d="M79 336q0 197 122 289t383 92h190v28q0 85 -60.5 124.5t-187.5 39.5q-104 0 -193 -23t-166 -69v273q107 28 207.5 42.5t187.5 14.5q136 0 233.5 -38.5t161.5 -117.5q69 77 161 116.5t201 39.5q239 0 381.5 -159t142.5 -425v-102h-754q13 -126 82.5 -189t196.5 -63 q102 0 208.5 33.5t219.5 101.5v-276q-115 -48 -229.5 -72.5t-228.5 -24.5q-161 0 -280 53.5t-184 153.5q-91 -107 -191.5 -157t-225.5 -50q-174 0 -276 98.5t-102 266.5zM404 354q0 -68 41 -106.5t114 -38.5q91 0 153 72.5t62 181.5v41h-167q-101 0 -152 -38t-51 -112z M1095 682h416q0 102 -53.5 164.5t-139.5 62.5q-93 0 -150.5 -58.5t-72.5 -168.5z" />
<glyph unicode="&#x4d6;" horiz-adv-x="1259" d="M169 0v1493h935v-291h-588v-278h553v-291h-553v-342h608v-291h-955zM321 1899h129q18 -61 61.5 -91t111.5 -30q69 0 112 30t62 91h129q-15 -129 -92.5 -196.5t-210.5 -67.5t-210.5 67.5t-91.5 196.5z" />
<glyph unicode="&#x4d7;" horiz-adv-x="1250" d="M79 559q0 274 149 431t410 157q238 0 380.5 -159t142.5 -425v-102h-753q11 -126 81.5 -189t196.5 -63q102 0 208.5 33.5t218.5 101.5v-276q-114 -48 -228.5 -72.5t-228.5 -24.5q-274 0 -425.5 154.5t-151.5 433.5zM353 1606h129q10 -70 54.5 -107t119.5 -37t119.5 37 t53.5 107h129q-5 -144 -83.5 -220.5t-218.5 -76.5q-141 0 -219 76.5t-84 220.5zM411 682h419q0 102 -53.5 164.5t-140.5 62.5q-93 0 -151.5 -58.5t-73.5 -168.5z" />
<glyph unicode="&#x4d8;" horiz-adv-x="1565" d="M94 829h1019q0 157 -110 283q-112 129 -319 129q-111 0 -222.5 -35t-223.5 -106v309q109 55 231.5 83t256.5 28q348 0 547.5 -207t199.5 -568q0 -362 -183.5 -568t-507.5 -206q-312 0 -507 206q-181 192 -181 652zM464 571q21 -114 73 -191q87 -130 245 -130 q160 0 247 130q52 77 73 191h-638z" />
<glyph unicode="&#x4d9;" horiz-adv-x="1250" d="M79 555v102h753q-11 126 -81.5 189t-196.5 63q-101 0 -208 -33.5t-219 -101.5v276q114 48 228.5 72.5t228.5 24.5q274 0 425.5 -154.5t151.5 -433.5q0 -274 -149 -431t-410 -157q-238 0 -380.5 159t-142.5 425zM410 436q0 -102 54 -164.5t140 -62.5q94 0 152 58.5 t73 168.5h-419z" />
<glyph unicode="&#x4da;" horiz-adv-x="1565" d="M94 829h1019q0 157 -110 283q-112 129 -319 129q-111 0 -222.5 -35t-223.5 -106v309q109 55 231.5 83t256.5 28q348 0 547.5 -207t199.5 -568q0 -362 -183.5 -568t-507.5 -206q-312 0 -507 206q-181 192 -181 652zM446 1653v246h211v-246h-211zM464 571q21 -114 73 -191 q87 -130 245 -130q160 0 247 130q52 77 73 191h-638zM801 1653v246h212v-246h-212z" />
<glyph unicode="&#x4db;" horiz-adv-x="1250" d="M79 555v102h753q-11 126 -81.5 189t-196.5 63q-101 0 -208 -33.5t-219 -101.5v276q114 48 228.5 72.5t228.5 24.5q274 0 425.5 -154.5t151.5 -433.5q0 -274 -149 -431t-410 -157q-238 0 -380.5 159t-142.5 425zM308 1339v246h212v-246h-212zM410 436q0 -102 54 -164.5 t140 -62.5q94 0 152 58.5t73 168.5h-419zM664 1339v246h211v-246h-211z" />
<glyph unicode="&#x4dc;" horiz-adv-x="2256" d="M27 0l550 895l-491 598h363l506 -616v616h346v-616l506 616h364l-492 -598l550 -895h-381l-386 629l-161 -195v-434h-346v434l-160 195l-386 -629h-382zM844 1653v246h211v-246h-211zM1199 1653v246h212v-246h-212z" />
<glyph unicode="&#x4dd;" horiz-adv-x="1834" d="M27 0l456 665l-421 455h353l341 -369v369h322v-369l341 369h353l-421 -455l456 -665h-333l-315 458l-81 -87v-371h-322v371l-81 87l-315 -458h-333zM636 1339v246h212v-246h-212zM992 1339v246h211v-246h-211z" />
<glyph unicode="&#x4de;" horiz-adv-x="1309" d="M122 45v297q97 -54 192.5 -81.5t233.5 -27.5q147 0 220.5 53t73.5 152q0 102 -75.5 154.5t-248.5 52.5h-166v248h173q157 0 221 45.5t64 138.5q0 86 -62 133t-185 47q-127 0 -238 -24.5t-173 -58.5v282q60 23 193 43.5t217 20.5q295 0 444.5 -95.5t149.5 -287.5 q0 -131 -62 -214.5t-183 -117.5q136 -39 206.5 -135.5t70.5 -245.5q0 -222 -153 -337.5t-473 -115.5q-133 0 -238 19t-202 55zM333 1653v246h211v-246h-211zM688 1653v246h212v-246h-212z" />
<glyph unicode="&#x4df;" horiz-adv-x="1071" d="M90 27v276q202 -94 321 -94q132 0 191 39.5t59 89.5q0 139 -260 139h-142v221h148q132 0 180 32t48 76q0 103 -212 103q-177 0 -287 -69v259q164 48 357 48q227 0 331.5 -71.5t104.5 -222.5q0 -198 -197 -249q222 -61 222 -286q0 -173 -122.5 -260t-384.5 -87 q-195 0 -357 56zM217 1338v246h212v-246h-212zM573 1338v246h211v-246h-211z" />
<glyph unicode="&#x4e0;" horiz-adv-x="1423" d="M133 1202v291h1100v-250l-347 -434q120 -11 194 -32q113 -33 191 -145q70 -103 70 -246q0 -222 -153 -338q-153 -115 -480 -115q-139 0 -279 30q-139 31 -276 92v290q140 -74 280 -112q139 -38 273 -38q142 0 216 53q72 53 72 152q0 102 -74 154q-76 53 -222 53h-169v245 l275 350h-671z" />
<glyph unicode="&#x4e1;" horiz-adv-x="1180" d="M80 -69q97 -54 194 -81q95 -28 188 -28q137 0 211 53q73 53 73 152q0 102 -75 155q-75 52 -222 52h-168v245l333 385h-509v256h880v-250l-377 -434q146 -9 224 -32q113 -33 190 -146q71 -102 71 -245q0 -222 -153 -337q-153 -116 -447 -116q-103 0 -207 18 q-104 19 -206 56v297z" />
<glyph unicode="&#x4e2;" horiz-adv-x="1542" d="M169 0v1493h329v-1024l488 1024h387v-1493h-328v1024l-489 -1024h-387zM458 1683v188h567v-188h-567z" />
<glyph unicode="&#x4e3;" horiz-adv-x="1291" d="M155 0v1120h322v-596l325 596h335v-1120h-323v596l-324 -596h-335zM369 1374v188h567v-188h-567z" />
<glyph unicode="&#x4e4;" horiz-adv-x="1542" d="M169 0v1493h329v-1024l488 1024h387v-1493h-328v1024l-489 -1024h-387zM458 1653v246h211v-246h-211zM813 1653v246h212v-246h-212z" />
<glyph unicode="&#x4e5;" horiz-adv-x="1291" d="M155 0v1120h322v-596l325 596h335v-1120h-323v596l-324 -596h-335zM369 1339v246h212v-246h-212zM725 1339v246h211v-246h-211z" />
<glyph unicode="&#x4e6;" horiz-adv-x="1566" d="M92 745q0 363 184 569t507 206q324 0 507.5 -206t183.5 -569q0 -362 -183.5 -568t-507.5 -206q-323 0 -507 206t-184 568zM450 745q0 -235 87.5 -365t245.5 -130q159 0 246.5 130t87.5 365q0 236 -87.5 366t-246.5 130q-158 0 -245.5 -130t-87.5 -366zM500 1653v246h211 v-246h-211zM855 1653v246h212v-246h-212z" />
<glyph unicode="&#x4e7;" horiz-adv-x="1266" d="M79 559q0 276 147.5 432t407.5 156q261 0 407 -156t146 -432t-146 -432t-407 -156q-260 0 -407.5 156t-147.5 432zM348 1339v246h212v-246h-212zM415 559q0 -161 56 -246.5t163 -85.5q106 0 161.5 85.5t55.5 246.5t-55.5 246.5t-161.5 85.5q-107 0 -163 -85.5t-56 -246.5 zM704 1339v246h211v-246h-211z" />
<glyph unicode="&#x4e8;" horiz-adv-x="1566" d="M92 745q0 363 183 569q185 206 508 206q324 0 507.5 -206t183.5 -569q0 -362 -183.5 -568t-507.5 -206q-323 0 -508 206q-183 206 -183 568zM453 662q13 -176 84 -282q88 -130 247 -130q158 0 246 130q71 106 84 282h-661zM464 920h638q-21 114 -72 191q-88 130 -246 130 q-159 0 -247 -130q-51 -77 -73 -191z" />
<glyph unicode="&#x4e9;" horiz-adv-x="1266" d="M79 559q0 276 147.5 432t407.5 156q261 0 407 -156t146 -432t-146 -432t-407 -156q-260 0 -407.5 156t-147.5 432zM418 486q10 -109 53 -174q55 -85 161 -85q107 0 163 85q43 65 53 174h-430zM425 680h417q-14 76 -47 126q-56 85 -163 85q-106 0 -161 -85 q-33 -50 -46 -126z" />
<glyph unicode="&#x4ea;" horiz-adv-x="1566" d="M92 745q0 363 183 569q185 206 508 206q324 0 507.5 -206t183.5 -569q0 -362 -183.5 -568t-507.5 -206q-323 0 -508 206q-183 206 -183 568zM453 662q13 -176 84 -282q88 -130 247 -130q158 0 246 130q71 106 84 282h-661zM464 920h638q-21 114 -72 191q-88 130 -246 130 q-159 0 -247 -130q-51 -77 -73 -191zM500 1653v246h211v-246h-211zM855 1653v246h212v-246h-212z" />
<glyph unicode="&#x4eb;" horiz-adv-x="1266" d="M79 559q0 276 147.5 432t407.5 156q261 0 407 -156t146 -432t-146 -432t-407 -156q-260 0 -407.5 156t-147.5 432zM351 1339v246h212v-246h-212zM418 486q10 -109 53 -174q55 -85 161 -85q107 0 163 85q43 65 53 174h-430zM425 680h417q-14 76 -47 126q-56 85 -163 85 q-106 0 -161 -85q-33 -50 -46 -126zM707 1339v246h211v-246h-211z" />
<glyph unicode="&#x4ec;" horiz-adv-x="1352" d="M118 82v309q186 -141 380 -141t285 115t106 235h-605v291h605q-15 120 -106 235t-285 115t-380 -141v309q192 111 415 111q335 0 531.5 -208.5t196.5 -566t-196.5 -566t-531.5 -208.5q-223 0 -415 111zM314 1653v246h211v-246h-211zM669 1653v246h212v-246h-212z" />
<glyph unicode="&#x4ed;" horiz-adv-x="1092" d="M123 33v293q116 -99 260 -99q140 0 207.5 75t79.5 160h-429v201h427q-12 75 -76.5 151.5t-202 76.5t-266.5 -98v292q153 62 310 62q273 0 426.5 -155.5t153.5 -432.5t-153.5 -432.5t-426.5 -155.5q-159 0 -310 62zM245 1339v246h212v-246h-212zM601 1339v246h211v-246 h-211z" />
<glyph unicode="&#x4ee;" horiz-adv-x="1421" d="M53 1493h362l298 -680l290 680h363l-528 -1245q-36 -85 -89 -139q-108 -109 -414 -109h-63v291h95q126 0 156 69q7 15 13 30zM433 1683v188h567v-188h-567z" />
<glyph unicode="&#x4ef;" horiz-adv-x="1201" d="M22 1120h323l271 -760l230 760h322l-424 -1226q-64 -187 -149 -261.5t-224 -74.5h-187v235h101q82 0 119.5 29t58.5 104l9 31zM311 1374v188h567v-188h-567z" />
<glyph unicode="&#x4f0;" horiz-adv-x="1421" d="M53 1493h362l298 -680l290 680h363l-528 -1245q-36 -85 -89 -139q-108 -109 -414 -109h-63v291h95q126 0 156 69q7 15 13 30zM433 1653v246h211v-246h-211zM788 1653v246h212v-246h-212z" />
<glyph unicode="&#x4f1;" horiz-adv-x="1201" d="M22 1120h323l271 -760l230 760h322l-424 -1226q-64 -187 -149 -261.5t-224 -74.5h-187v235h101q82 0 119.5 29t58.5 104l9 31zM311 1339v246h212v-246h-212zM667 1339v246h211v-246h-211z" />
<glyph unicode="&#x4f2;" horiz-adv-x="1421" d="M53 1493h362l298 -680l290 680h363l-528 -1245q-36 -85 -89 -139q-108 -109 -414 -109h-63v291h95q126 0 156 69q7 15 13 30zM399 1635l179 264h254l-256 -264h-177zM737 1635l178 264h255l-257 -264h-176z" />
<glyph unicode="&#x4f3;" horiz-adv-x="1201" d="M22 1120h323l271 -760l230 760h322l-424 -1226q-64 -187 -149 -261.5t-224 -74.5h-187v235h101q82 0 119.5 29t58.5 104l9 31zM308 1262l174 376h196l-224 -376h-146zM616 1262l193 376h208l-245 -376h-156z" />
<glyph unicode="&#x4f4;" horiz-adv-x="1489" d="M148 1035v458h347v-275q0 -236 33.5 -296.5t117.5 -60.5h328v632h346v-1493h-346v570h-470q-171 0 -263.5 117t-92.5 348zM476 1653v246h211v-246h-211zM831 1653v246h212v-246h-212z" />
<glyph unicode="&#x4f5;" horiz-adv-x="1265" d="M119 784v336h322v-199q0 -178 26 -222.5t95 -44.5h172v466h323v-1120h-323v433h-331q-135 0 -209.5 88.5t-74.5 262.5zM321 1339v246h212v-246h-212zM677 1339v246h211v-246h-211z" />
<glyph unicode="&#x4f6;" horiz-adv-x="1174" d="M169 0v1493h955v-291h-608v-911h345v-612h-345v321h-347z" />
<glyph unicode="&#x4f7;" horiz-adv-x="963" d="M155 0v1120h764v-221h-442v-678h323v-504h-323v283h-322z" />
<glyph unicode="&#x4f8;" horiz-adv-x="1909" d="M169 0v1493h347v-569h228q255 0 400 -117q131 -106 131 -346q0 -238 -131 -344q-145 -117 -400 -117h-575zM516 262h203q109 0 158 45q52 49 52 142q0 91 -52 139q-48 45 -158 45h-203v-371zM653 1653v246h211v-246h-211zM1008 1653v246h212v-246h-212zM1394 0v1493h347 v-1493h-347z" />
<glyph unicode="&#x4f9;" horiz-adv-x="1666" d="M155 0v1120h322v-425h183q204 0 314 -83q110 -84 110 -266t-110 -264t-314 -82h-505zM477 224h163q71 0 107 32q36 31 36 94t-36 94q-35 30 -107 30h-163v-250zM553 1339v246h212v-246h-212zM909 1339v246h211v-246h-211zM1195 0v1120h322v-1120h-322z" />
<glyph unicode="&#x4fa;" horiz-adv-x="1226" d="M52 622v291h169v580h955v-291h-608v-289h401v-291h-401v-367h322v-256q0 -207 -95 -322q-99 -120 -284 -120h-159v235h56q94 0 130 53q30 44 30 155h-347v622h-169z" />
<glyph unicode="&#x4fb;" horiz-adv-x="1000" d="M38 449v221h155v450h764v-221h-442v-229h306v-221h-306v-196h323v-256q0 -207 -96 -322q-98 -120 -283 -120h-159v235h56q94 0 130 53q30 44 30 155l-1 2h-322v449h-155z" />
<glyph unicode="&#x4fc;" horiz-adv-x="1421" d="M35 0l466 762l-448 731h362l294 -481l294 481h363l-448 -731l465 -762q-65 -410 -538 -410h-70v291q206 0 250 119h-2l-314 510l-311 -510h-363z" />
<glyph unicode="&#x4fd;" horiz-adv-x="1188" d="M28 0l382 573l-364 547h341l206 -332l209 332h341l-364 -545q53 -80 350 -521q14 -22 14 -54q0 -205 -93 -320q-98 -122 -286 -122h-161v235q132 0 171 34q43 39 45 174l-226 353l-224 -354h-341z" />
<glyph unicode="&#x4fe;" horiz-adv-x="1421" d="M35 0l380 621h-293v260h306l-375 612h362l294 -481l294 481h363l-375 -612h309v-260h-296l380 -621h-361l-314 510l-311 -510h-363z" />
<glyph unicode="&#x4ff;" horiz-adv-x="1188" d="M28 0l307 461h-223v221h225l-291 438h341l206 -332l209 332h341l-292 -438h225v-221h-221l306 -461h-341l-227 354l-224 -354h-341z" />
<glyph unicode="&#x2000;" horiz-adv-x="1046" />
<glyph unicode="&#x2001;" horiz-adv-x="2093" />
<glyph unicode="&#x2002;" horiz-adv-x="1046" />
<glyph unicode="&#x2003;" horiz-adv-x="2093" />
<glyph unicode="&#x2004;" horiz-adv-x="697" />
<glyph unicode="&#x2005;" horiz-adv-x="523" />
<glyph unicode="&#x2006;" horiz-adv-x="348" />
<glyph unicode="&#x2007;" horiz-adv-x="348" />
<glyph unicode="&#x2008;" horiz-adv-x="261" />
<glyph unicode="&#x2009;" horiz-adv-x="418" />
<glyph unicode="&#x200a;" horiz-adv-x="116" />
<glyph unicode="&#x2010;" horiz-adv-x="765" d="M100 444v291h565v-291h-565z" />
<glyph unicode="&#x2011;" horiz-adv-x="765" d="M100 444v291h565v-291h-565z" />
<glyph unicode="&#x2012;" horiz-adv-x="765" d="M100 444v291h565v-291h-565z" />
<glyph unicode="&#x2013;" horiz-adv-x="921" d="M99 432v258h724v-258h-724z" />
<glyph unicode="&#x2014;" horiz-adv-x="1843" d="M99 432v258h1645v-258h-1645z" />
<glyph unicode="&#x2018;" horiz-adv-x="700" d="M190 856v285l204 352h192l-90 -352v-285h-306z" />
<glyph unicode="&#x2019;" horiz-adv-x="700" d="M116 856l90 352v285h306v-285l-204 -352h-192z" />
<glyph unicode="&#x201a;" horiz-adv-x="700" d="M132 -250l91 352v285h306v-285l-207 -352h-190z" />
<glyph unicode="&#x201c;" horiz-adv-x="1211" d="M190 856v285l204 352h192l-90 -352v-285h-306zM645 856v283l205 354h191l-90 -354v-283h-306z" />
<glyph unicode="&#x201d;" horiz-adv-x="1211" d="M169 856l91 352v285h306v-285l-205 -352h-192zM625 856l91 350v287h306v-287l-206 -350h-191z" />
<glyph unicode="&#x201e;" horiz-adv-x="1211" d="M132 -250l91 352v285h306v-285l-207 -352h-190zM588 -250l91 350v287h306v-287l-206 -350h-191z" />
<glyph unicode="&#x2022;" horiz-adv-x="1178" d="M266 762q0 74 23.5 139t69.5 115q48 51 106.5 77.5t124.5 26.5q65 0 124 -27t104 -77q47 -52 71 -116.5t24 -137.5q0 -74 -24.5 -139.5t-70.5 -116.5t-105 -78t-125 -27t-124.5 27t-104.5 78q-45 51 -69 116.5t-24 139.5z" />
<glyph unicode="&#x2026;" horiz-adv-x="1843" d="M146 0v387h324v-387h-324zM760 0v387h324v-387h-324zM1373 0v387h324v-387h-324z" />
<glyph unicode="&#x202f;" horiz-adv-x="418" />
<glyph unicode="&#x2039;" horiz-adv-x="759" d="M142 506v186l444 371v-242l-264 -221l264 -221v-242z" />
<glyph unicode="&#x203a;" horiz-adv-x="759" d="M174 137v242l262 221l-262 221v242l443 -371v-186z" />
<glyph unicode="&#x205f;" horiz-adv-x="523" />
<glyph unicode="&#x20ac;" d="M-35 477l79 195h88q-1 14 -1.5 29.5t-0.5 43.5q0 29 0.5 45t1.5 31h-167l79 195h116q70 246 230.5 375t396.5 129q100 0 193.5 -28t178.5 -83v-309q-73 78 -155.5 117.5t-171.5 39.5q-115 0 -195.5 -61.5t-120.5 -179.5h485l-78 -195h-443q-2 -16 -2.5 -34t-0.5 -54 q0 -13 0.5 -28.5t1.5 -32.5h386l-80 -195h-269q45 -122 123.5 -183t192.5 -61q89 0 170.5 39.5t156.5 118.5v-309q-85 -55 -178.5 -83t-193.5 -28q-236 0 -397.5 130.5t-229.5 375.5h-195z" />
<glyph unicode="&#x2122;" horiz-adv-x="1843" d="M266 1350v143h466v-143h-157v-435h-155v435h-154zM833 915v578h205l107 -227l107 227h204v-578h-153v437l-123 -256h-68l-124 256v-437h-155z" />
<glyph unicode="&#x25fc;" horiz-adv-x="1120" d="M0 0v1120h1120v-1120h-1120z" />
</font>
</defs>
</svg>
