<?xml version="1.0" encoding="UTF-8" standalone="no"?>
<svg width="223px" height="186px" viewBox="0 0 223 186" version="1.1" xmlns="http://www.w3.org/2000/svg" xmlns:xlink="http://www.w3.org/1999/xlink" xmlns:sketch="http://www.bohemiancoding.com/sketch/ns">
    <!-- Generator: Sketch 3.3 (11970) - http://www.bohemiancoding.com/sketch -->
    <title>Satellite2</title>
    <desc>Created with Sketch.</desc>
    <defs></defs>
    <g id="Page-1" stroke="none" stroke-width="1" fill="none" fill-rule="evenodd" sketch:type="MSPage">
        <g id="satellite" sketch:type="MSLayerGroup">
            <g id="Page-1" sketch:type="MSShapeGroup">
                <g id="Satellite2">
                    <ellipse id="Oval" fill="#DB3B53" cx="129.863487" cy="93" rx="92.8470395" ry="92.8470395"></ellipse>
                    <path d="M106.613487,77.9486842 L112.089474,72.4726974 L116.464145,76.8473684 L106.062829,87.2486842 C97.8641447,82.8740132 90.7361842,82.3233553 86.9121711,86.1473684 C80.8855263,92.1740132 85.8108553,106.399342 97.8641447,119.553947 L85.2601974,131.607237 C83.6082237,131.056579 81.9868421,131.607237 80.3348684,132.708553 C78.6828947,134.360526 78.6828947,137.633882 80.3348684,139.285855 C81.9868421,140.937829 85.2601974,140.937829 86.9121711,139.285855 C88.0134868,138.184539 88.5641447,136.0125 88.0134868,134.360526 L100.066776,122.307237 C113.190789,134.911184 127.446711,139.836513 133.473355,133.809868 C137.297368,129.985855 136.746711,122.857895 132.922697,114.659211 L143.874671,103.707237 L149.901316,109.733882 L144.394737,115.179276 L181.625329,152.409868 L201.877303,132.157895 L164.646711,94.9273026 L159.170724,100.403289 L153.144079,94.3766447 L169.572039,77.9486842 L141.641447,51.1194079 L125.213487,67.5473684 L120.838816,63.1726974 L126.314803,57.6967105 L89.1148026,20.4661184 L69.4134868,40.7180921 L106.613487,77.9486842 L106.613487,77.9486842 Z M118.666776,130.505921 C118.116118,130.505921 117.565461,129.955263 117.014803,129.955263 C112.640132,127.752632 108.265461,124.479276 103.890789,120.104605 L105.542763,118.452632 L110.468092,113.527303 L108.816118,111.875329 L107.164145,110.223355 L102.238816,115.148684 L100.586842,116.800658 C96.7628289,112.425987 93.4588816,108.051316 91.2868421,104.196711 C91.2868421,103.646053 90.7361842,103.095395 90.7361842,102.544737 C88.0134868,96.5180921 87.4628289,91.5927632 89.6348684,89.4207237 C91.8375,87.2180921 96.7628289,87.76875 102.758882,90.5220395 C107.684211,92.7246711 112.609539,96.5486842 118.085526,102.024671 L118.636184,102.575329 C124.112171,108.051316 127.936184,114.077961 130.138816,119.003289 C132.861513,125.029934 133.412171,129.404605 131.240132,131.607237 C129.068092,133.228618 124.142763,133.228618 118.666776,130.505921 L118.666776,130.505921 L118.666776,130.505921 Z" id="Shape" fill="#FFFFFF"></path>
                    <path d="M9.39177632,106.674671 C9.39177632,90.7973684 17.5904605,76.5720395 30.1944079,68.3427632 L24.7184211,59.5934211 C9.94243421,69.4440789 0.0917763158,86.4226974 0.0917763158,105.022697 C0.0917763158,123.622697 9.94243421,140.601316 24.7184211,150.451974 L29.0930921,144.425329 C17.6210526,136.257237 9.39177632,122.001316 9.39177632,106.674671 L9.39177632,106.674671 L9.39177632,106.674671 Z" id="Shape" fill="#FFFFFF"></path>
                </g>
            </g>
        </g>
    </g>
</svg>