<?xml version="1.0" encoding="UTF-8" standalone="no"?>
<svg width="186px" height="186px" viewBox="0 0 186 186" version="1.1" xmlns="http://www.w3.org/2000/svg" xmlns:xlink="http://www.w3.org/1999/xlink" xmlns:sketch="http://www.bohemiancoding.com/sketch/ns">
    <!-- Generator: Sketch 3.3 (11970) - http://www.bohemiancoding.com/sketch -->
    <title>Wi-Fi3</title>
    <desc>Created with Sketch.</desc>
    <defs></defs>
    <g id="Page-1" stroke="none" stroke-width="1" fill="none" fill-rule="evenodd" sketch:type="MSPage">
        <g id="Wi-Fi3" sketch:type="MSLayerGroup">
            <circle id="Oval" fill="#DC3B54" sketch:type="MSShapeGroup" cx="93" cy="93" r="92.8135857"></circle>
            <g id="Group" transform="translate(32.726058, 19.055679)" fill="#FFFFFF" sketch:type="MSShapeGroup">
                <path d="M91.6122494,0.0621380846 L86.4755011,8.32650334 C100.332294,17.1501114 109.44588,32.6432071 109.44588,50.2904232 C109.44588,67.7719376 100.415145,83.1407572 86.7447661,92.0679287 L91.8815145,100.332294 C108.306682,89.7066815 119.139421,71.2723831 119.139421,50.2904232 C119.242984,29.2048998 108.223831,10.6877506 91.6122494,0.0621380846 L91.6122494,0.0621380846 Z" id="Shape"></path>
                <path d="M27.3200445,100.415145 L32.4567929,92.1507795 C18.7864143,83.223608 9.75567929,67.8340757 9.75567929,50.3732739 C9.75567929,32.7053452 18.9728285,17.2329621 32.7260579,8.40935412 L27.5893096,0.144988864 C11.0812918,10.5841871 0.0621380846,29.2048998 0.0621380846,50.2904232 C0.0621380846,71.3759465 10.998441,89.7895323 27.3200445,100.415145 L27.3200445,100.415145 Z" id="Shape"></path>
            </g>
            <g id="Group" transform="translate(51.367483, 35.004454)" fill="#FFFFFF" sketch:type="MSShapeGroup">
                <path d="M6.8766147,35.2944321 C6.8766147,23.1360802 13.235412,12.5104677 22.742539,6.42093541 L18.7449889,0.0621380846 C7.53942094,7.37371938 0.124276169,20.0084633 0.124276169,34.3416481 C0.124276169,48.674833 7.53942094,61.3095768 18.7449889,68.6211581 L21.8726058,63.6915367 C12.8625835,57.498441 6.8766147,47.1628062 6.8766147,35.2944321 L6.8766147,35.2944321 Z" id="Shape"></path>
                <path d="M75.145657,35.2944321 C75.145657,47.0592428 69.1596882,57.4155902 60.1496659,63.5879733 L63.2772829,68.6211581 C74.4828508,61.3095768 81.8979955,48.7783964 81.8979955,34.4452116 C81.8979955,20.1120267 74.4828508,7.47728285 63.2772829,0.269265033 L59.2797327,6.54521158 C68.8697105,12.5933185 75.145657,23.218931 75.145657,35.2944321 L75.145657,35.2944321 Z" id="Shape"></path>
            </g>
            <g id="Group" transform="translate(67.316258, 48.467706)" fill="#FFFFFF" sketch:type="MSShapeGroup">
                <path d="M45.8993318,21.5412027 C45.8993318,28.5628062 42.3781737,34.8387528 36.9721604,38.6291759 L38.8777283,41.6739421 C45.6093541,37.2207127 49.9797327,29.5155902 49.9797327,20.8783964 C49.9797327,12.2412027 45.6093541,4.63964365 38.9605791,0.186414254 L36.5786192,4.08040089 C42.1917595,7.76726058 45.8993318,14.2296214 45.8993318,21.5412027 L45.8993318,21.5412027 Z" id="Shape"></path>
                <path d="M4.22538976,21.5412027 C4.22538976,14.2296214 8.01581292,7.76726058 13.6289532,4.0596882 L11.2469933,0.165701559 C4.51536748,4.61893096 0.144988864,12.22049 0.144988864,20.8576837 C0.144988864,29.4948775 4.51536748,37.1792873 11.2469933,41.6532294 L13.1525612,38.6084633 C7.72583519,34.8387528 4.22538976,28.5628062 4.22538976,21.5412027 L4.22538976,21.5412027 Z" id="Shape"></path>
            </g>
            <g id="Group" transform="translate(77.879733, 57.374165)" fill="#FFFFFF" sketch:type="MSShapeGroup">
                <path d="M26.5951002,12.3447661 C26.5951002,16.3423163 24.6895323,19.7599109 21.7483296,22.0383073 L22.8875278,23.8403118 C26.4915367,21.1890869 28.9563474,16.901559 28.9563474,11.9719376 C28.9563474,7.04231626 26.4915367,2.75478842 22.7839644,0.103563474 L21.3547884,2.38195991 C24.5238307,4.55679287 26.5951002,8.26436526 26.5951002,12.3447661 L26.5951002,12.3447661 Z" id="Shape"></path>
                <path d="M2.40267261,12.3447661 C2.40267261,8.16080178 4.49465479,4.55679287 7.62227171,2.38195991 L6.19309577,0.103563474 C2.40267261,2.67193764 0.0207126949,7.04231626 0.0207126949,11.9719376 C0.0207126949,16.8187082 2.48552339,21.1890869 6.19309577,23.7367483 L7.33229399,21.9347439 C4.28752784,19.8427617 2.40267261,16.3423163 2.40267261,12.3447661 L2.40267261,12.3447661 Z" id="Shape"></path>
            </g>
            <path d="M96.7075724,124.214031 L94.222049,73.3229399 C95.5476615,72.6601336 96.396882,71.3345212 96.396882,69.718931 C96.396882,67.9997773 95.3612472,66.591314 93.8285078,66.0113586 L93.8285078,66.0113586 C93.3521158,65.8249443 92.8757238,65.7213808 92.3993318,65.7213808 L92.3993318,65.7213808 C91.8193764,65.7213808 91.3636971,65.8249443 90.8873051,66.0113586 C89.3752784,66.591314 88.318931,68.1033408 88.318931,69.8017817 C88.318931,71.3138085 89.1681514,72.7429844 90.4937639,73.4057906 L90.4937639,73.4057906 L88.0289532,124.296882 L96.666147,124.296882 L96.666147,124.214031 L96.7075724,124.214031 Z" id="Shape" fill="#FFFFFF" sketch:type="MSShapeGroup"></path>
        </g>
    </g>
</svg>